<svg width="323" height="285" fill="none" xmlns="http://www.w3.org/2000/svg">
    <g clip-path="url(#prefix__clip0_974_4231)">
        <path
            d="M248.18 155.399c9.665 12.066 15.937 28.581 12.317 43.921-2.322 8.499-8.835 18.595-18.98 17.781a10.337 10.337 0 01-1.884-.253c.349-1.164.683-2.328 1.001-3.492 2.537.475 5.654-.181 8.556-2.26.119.139.276.271.48.392 2.502.911 3.673-1.88 3.995-5.199 1.555-2.396 2.837-5.443 3.643-9.218 2.571-14.809-3.65-29.384-13.185-40.765a106.727 106.727 0 00-1.842-7.251c2.111 1.943 3.973 4.298 5.899 6.344z"
            fill="#000" fill-opacity=".5" />
        <path
            d="M244.123 156.306c9.535 11.381 15.756 25.956 13.185 40.765-.806 3.775-2.088 6.822-3.643 9.218.326-3.277-.18-7.071-1.04-8.322-.96-3.895-6.08-1.962-3.531 1.002 3.22 6.921-1.455 10.33.096 12.127-2.902 2.079-6.019 2.735-8.556 2.26a197.109 197.109 0 005.167-25.07c1.293-10.714.606-21.499-1.678-31.98z"
            fill="#fff" />
        <path
            d="M252.625 197.967c.86 1.251 1.366 5.045 1.04 8.322-1.336 2.072-2.871 3.654-4.475 4.807-1.551-1.797 3.124-5.206-.096-12.127-2.549-2.964 2.571-4.897 3.531-1.002z"
            fill="#000" fill-opacity=".5" />
        <path
            d="M253.665 206.289c-.322 3.319-1.493 6.11-3.995 5.199a1.895 1.895 0 01-.48-.392c1.604-1.153 3.139-2.735 4.475-4.807zM246.603 104.58c2.299 7.078 3.569 14.808 2.038 22.158-1.539 5.402-3.639 10.846-7.523 15.065-.288.305-.587.606-.89.9-.173-.49-.354-.979-.534-1.469-.061.049-.123.098-.18.147-.254.226-.522.437-.803.64-.641.471-1.485.724-2.31.795.307.795.606 1.594.902 2.396-2.031 1.56-4.276 2.939-6.69 4.155a55.66 55.66 0 00.959-2.761c.327-1.044.672-2.087.968-3.142 0-.004.011-.007.015-.011 5.074-3.029 8.924-7.76 10.828-13.279 1.615-3.813 2.36-7.874 1.98-11.999-1.025-13.603-8.839-29.58-18.78-42.245a62.34 62.34 0 001.792-4.38c8.022 9.805 14.102 21.167 18.228 33.03zM244.123 156.306c2.284 10.481 2.971 21.266 1.678 31.98a197.109 197.109 0 01-5.167 25.07c-1.274-.241-2.398-.764-3.281-1.533 5.719-19.834 7.557-40.919 1.834-60.847a73.052 73.052 0 014.936 5.33z"
            fill="#000" fill-opacity=".5" />
        <path
            d="M245.363 118.175c.38 4.125-.365 8.186-1.98 11.999-1.904 5.519-5.754 10.25-10.828 13.279-.004.004-.012.007-.015.011-.296 1.055-.641 2.098-.968 3.142a55.66 55.66 0 01-.959 2.761c2.414-1.216 4.659-2.595 6.69-4.155a68.685 68.685 0 01.702 1.993l.204.599c.349 1.055.675 2.11.978 3.172 5.723 19.928 3.885 41.013-1.834 60.847-.012.034-.02.072-.031.106-.161.565-.33 1.126-.499 1.687-.18.595-.365 1.191-.549 1.786a160.99 160.99 0 01-2.422 7.15c-2.61 7.561-5.749 15.332-9.664 22.599.145-.026.291-.045.437-.068 0 .008-.004.012-.008.015-.007.023-.019.042-.03.061-2.422 4.411-5.036 8.732-7.166 13.298-2.115-.324-4.652.196-7.416 1.812-2.422-3.142-6.636-4.815-10.85-3.391-.48.045-1.163.23-1.927.513a5.782 5.782 0 01-.035-.37 1.377 1.377 0 00-.092.419c-1.896.719-4.249 2.019-5.323 3.318-2.672-2.354-6.61-3.292-10.08-1.427-4.51 1.906-.414 7.063 1.808 3.104 6.065-2.34 9.553 4.471 6.441 8.63-.73-.003-1.463-.015-2.192-.022h-.031s-.015-.004-.023-.004c-.011 0-.027-.004-.042-.004h-.004c-.038-.004-.077-.004-.115-.004-5.101-.018-10.187-.516-15.284-.644-2.092-.067-4.191-.026-6.287-.011-.291-.682-.671-1.352-.979-2.038a1.68 1.68 0 00-.303-.787s0-.004-.004-.004a5.27 5.27 0 01-.126-.479c-2.069-6.132-4.065-12.371-4.568-18.847a3.487 3.487 0 01-.019-.772c3.032-.023 6.068-.045 9.101-.12 2.364.011 2.349-3.609-.004-3.579-3.578.083-7.155.113-10.732.135h-.069c-2.764.012-5.527.027-8.291.098-1.546.091-4.061-.297-4.122 1.865 0 .983.841 1.801 1.842 1.789 2.63-.094 5.263-.135 7.892-.162-.027.291-.046.577-.062.837-.387 3.808-1.109 7.576-1.888 11.324-.618 2.931-1.332 5.933-2.341 8.845-.188.708-.664 1.571-.96 2.407-2.034.196-4.072.351-6.11.479-.599.037-1.198.075-1.8.109a.065.065 0 01-.039 0 87.296 87.296 0 01-2.23-.019c-.08 0-.165-.007-.246-.011-7.753-.32-15.502-.652-23.248-1.104.027-.154.058-.313.092-.471.718-3.353 2.154-6.705 4.791-9.037.982-.757 2.107-1.662 3.385-1.775 1.927.464 3.009 2.167 2.222 4.016-.292 1.526 1.72 2.649 2.921 1.662 1.516-1.722 1.213-4.856-.211-6.619-3.961-4.438-8.947-2.539-12.455 1.755-.752-2.441-2.729-4.667-4.694-6.106-4.215-2.069-8.233-1.756-11.488-.061l-.165-.305c1.585-.893.768-4.551-3.504-5.093a9.46 9.46 0 00-4.69 1.013c-.33-.414-.66-.832-.983-1.254-.384-.494-.76-.991-1.133-1.492-6.225-8.352-11.261-17.562-14.712-27.252-.122-.365-.237-.734-.356-1.1 4.122-3.074 6.095-9.011 4.28-14.179-1.068-2.709-4.637-.754-3.317 1.714.614 3.955-.35 6.92-2.05 8.766-.073.079-.15.158-.23.237-.035.038-.077.076-.115.113-.02.019-.042.042-.065.061-.035.034-.07.064-.104.094l-.035.03a.57.57 0 01-.072.064c-.031.026-.062.053-.093.075-.092.08-.188.151-.284.223a2.65 2.65 0 01-.172.124c-.047.034-.096.064-.142.094-.027.019-.054.038-.081.053a.153.153 0 01-.042.026.41.41 0 01-.05.034c-.062.038-.123.076-.188.109-.1.061-.204.113-.307.166l-.046.023s.007-.015.015-.023a.118.118 0 00-.02.027h-.003s-.03.015-.046.018c-.08.042-.157.08-.238.113a6.81 6.81 0 01-.883.313c-5.596 1.556-12.954-4.298-8.835-19.574-3.129-6.197-6.084 4.133-4.165 12.951-4.253-3.059-2.756-10.608-2.92-15.234a57.327 57.327 0 011.554-7.764c.23-.851.48-1.699.748-2.539.062-.207.127-.407.196-.61a72.321 72.321 0 011.581-4.359l.3-.746.015-.034c3.166-7.696 7.561-14.955 12.156-22.053.026-.045.057-.086.084-.132h.004a51 51 0 011.002-1.009c.172-.143.314-.29.433-.437.043-.053.081-.106.116-.158.03-.046.061-.091.084-.136a1.63 1.63 0 00.161-.362c.08-.248.096-.493.062-.727v-.015c1.723-2.622 3.45-5.221 5.131-7.82a329.6 329.6 0 001.893-2.95l-.127.181-.03.03c.218-.298.345-.588.398-.863.035-.056.066-.117.1-.177.17-.301.334-.603.507-.904.35-.629.706-1.258 1.07-1.88a39.725 39.725 0 01-.855-.768c.034-.076.069-.147.103-.223a8.902 8.902 0 01-.43-.354 5.025 5.025 0 00-.203-.177c-.407-.297-.817-.587-1.194-.919a24.364 24.364 0 01-.698-.727 7.525 7.525 0 01-.334-.437l-.023.053-.023-.023c-1.781-1.831-2.721-4.245-4.26-6.223a13.557 13.557 0 01-.208-.746c-1.39-15.751 4.744-31.723 13.691-44.596a77.167 77.167 0 013.927-5.334c.061-.08.126-.158.188-.234 9.791-12.062 22.837-20.572 37.979-25.443 1.796-.565 3.6-1.123 5.416-1.658a178.217 178.217 0 014.076-1.149s0-.003-.004-.003c7.205-1.937 14.559-3.35 22.02-3.35.894 0 1.789.023 2.683.065 6.813.098 13.679.723 20.327 2.14.307.064.614.131.921.203.231.049.461.102.688.158.026 0 .049.008.072.015.369.083.734.173 1.094.264 8.506 2.117 16.582 5.613 23.648 11.049 4.145 3.134 8.302 7.139 12.221 11.697a99.49 99.49 0 012.851 3.473c9.941 12.665 17.756 28.642 18.781 42.245h-.004z"
            fill="#fff" />
        <path
            d="M242.281 149.055a106.727 106.727 0 011.842 7.251 73.052 73.052 0 00-4.936-5.33 79.814 79.814 0 00-.978-3.172c-.066-.2-.135-.399-.2-.599.372-.298.856-.46 1.37-.381 1.033.626 1.988 1.391 2.902 2.231z"
            fill="#000" fill-opacity=".5" />
        <path
            d="M240.228 142.703a113.18 113.18 0 012.053 6.352c-.914-.84-1.869-1.605-2.902-2.231a1.754 1.754 0 00-1.37.381h-.004a58.516 58.516 0 00-.702-1.993 32.602 32.602 0 002.925-2.509zM240.634 213.356a147.613 147.613 0 01-1.001 3.492 9.841 9.841 0 01-3.359-1.446c.188-.595.372-1.191.549-1.786.169-.561.338-1.122.499-1.687.011-.034.019-.072.031-.106.883.769 2.007 1.292 3.281 1.533z"
            fill="#000" fill-opacity=".5" />
        <path
            d="M239.694 141.234c.18.49.361.979.534 1.469a32.602 32.602 0 01-2.925 2.509c-.296-.802-.595-1.601-.902-2.396.825-.071 1.669-.324 2.31-.795.281-.203.549-.414.803-.64.057-.049.119-.098.18-.147zM236.274 215.402a9.841 9.841 0 003.359 1.446c-2.035 6.879-4.51 13.769-7.462 20.366.63-1.748-1.896-3.293-3.174-1.65-1.501 3.138-2.802 6.393-4.372 9.519-.146.023-.292.042-.437.068 3.915-7.267 7.054-15.038 9.664-22.599a160.99 160.99 0 002.422-7.15zM238.009 147.205c.065.2.134.399.2.599l-.204-.599h.004z"
            fill="#000" fill-opacity=".5" />
        <path
            d="M236.823 213.616c-.18.595-.365 1.191-.549 1.786.188-.595.372-1.191.549-1.786zM228.997 235.564c1.278-1.643 3.804-.098 3.174 1.65a.05.05 0 01-.008.022c-.034.076-.065.151-.103.226 0 .004 0 .008-.004.012a1.256 1.256 0 01-.069.116h.004c-.035.095-.073.185-.108.272a112.24 112.24 0 01-1.351 2.878c-.126-1.225-1.712-2.121-2.821-1.319-.894.637-1.021 1.827-1.516 2.739-.507.979-1.033 1.955-1.566 2.923h-.004c1.57-3.126 2.871-6.381 4.372-9.519z"
            fill="#000" fill-opacity=".5" />
        <path
            d="M232.163 237.236c-.034.076-.065.151-.103.226.042-.075.077-.15.103-.226zM231.987 237.59c.027-.041.05-.079.069-.116a36.93 36.93 0 00-.173.388c.035-.087.073-.177.108-.268h-.004v-.004zM230.532 240.74c.465-.953.914-1.914 1.351-2.878a97.03 97.03 0 01-1.351 3.172 1.034 1.034 0 000-.294z"
            fill="#000" fill-opacity=".5" />
        <path
            d="M230.532 240.74c.012.098.016.196 0 .294-.157.365-.322.727-.487 1.088a2.366 2.366 0 01-.327.283c.281-.554.549-1.108.814-1.665z"
            fill="#000" fill-opacity=".5" />
        <path
            d="M230.114 242.051c-.027.022-.046.049-.069.071.165-.361.33-.723.487-1.088a1.345 1.345 0 01-.042.267c-.821 2.245-1.958 4.336-3.147 6.404a147.035 147.035 0 002.694-5.571.542.542 0 00.077-.083zM229.718 242.405c-.353.712-.713 1.42-1.082 2.125l-.203.018c-.492.046-.979.117-1.467.189-.771.113-1.539.226-2.31.343l-.027.003c.533-.968 1.059-1.944 1.566-2.923.495-.912.622-2.102 1.516-2.739 1.109-.802 2.695.094 2.821 1.319a72.967 72.967 0 01-.814 1.665z"
            fill="#000" fill-opacity=".5" />
        <path d="M230.045 242.122s-.004.008-.008.012c-.092.101-.2.192-.319.271.119-.087.231-.181.327-.283z" fill="#000"
            fill-opacity=".5" />
        <path
            d="M229.718 242.405c.119-.079.227-.17.319-.271a147.035 147.035 0 01-2.694 5.571c-.227.396-.457.788-.687 1.183-1.098-.614-2.307-.859-3.585-.814l.856-1.642c.226-.422.445-.844.66-1.273.011-.019.023-.038.03-.061.008-.003.012-.007.012-.015l.027-.003c.771-.117 1.539-.23 2.31-.343.488-.072.975-.143 1.467-.189l.203-.018c.369-.705.729-1.413 1.082-2.125zM221.758 33.651c13.33 6.284 11.987 23.135 7.711 34.741a101.11 101.11 0 01-1.094 3.157 90.965 90.965 0 00-2.959-3.45 75.626 75.626 0 002.452-8.458c2.891-11.93-1.6-23.73-15.686-23.522-6.844.196-13.35 3.262-18.581 7.467a43.7 43.7 0 00-2.518 2.463 84.433 84.433 0 00-4.345-1.107c7.577-9.998 23.121-16.727 35.02-11.29z"
            fill="#000" fill-opacity=".5" />
        <path
            d="M212.182 36.119c14.086-.207 18.577 11.592 15.686 23.522a75.626 75.626 0 01-2.452 8.457 91.742 91.742 0 00-5.021-5.157c-8.371-8.476-18.435-13.803-29.312-16.892a43.7 43.7 0 012.518-2.463c5.231-4.205 11.737-7.271 18.581-7.467z"
            fill="#fff" />
        <path
            d="M227.343 247.705c-.208.407-.415.81-.626 1.217l-.061-.034c.23-.395.46-.787.687-1.183zM228.375 71.55a62.34 62.34 0 01-1.792 4.38 100.66 100.66 0 00-2.852-3.473 77.203 77.203 0 001.685-4.359 90.965 90.965 0 012.959 3.451z"
            fill="#000" fill-opacity=".5" />
        <path
            d="M226.717 248.922a1225.157 1225.157 0 00-1.658 3.176c-.054-.042-.108-.087-.165-.128.568-1.04 1.167-2.061 1.762-3.082l.061.034z"
            fill="#000" fill-opacity=".5" />
        <path
            d="M226.656 248.888c-.595 1.021-1.194 2.042-1.762 3.082-.042-.034-.088-.068-.131-.102-1.251-.452-2.583-.154-3.834.316.718-1.367 1.428-2.738 2.142-4.11 1.278-.045 2.487.2 3.585.814z"
            fill="#000" fill-opacity=".5" />
        <path
            d="M224.763 251.868c.043.034.089.068.131.102-.273.489-.534.987-.787 1.488a126.034 126.034 0 00-3.358 6.464c-.926-.761-2.05-1.266-3.328-1.465 2.13-4.566 4.744-8.887 7.166-13.298-.215.429-.434.851-.66 1.273l-.856 1.642c-.714 1.372-1.424 2.743-2.142 4.11 1.251-.47 2.583-.768 3.834-.316zM224.629 245.083s-.004.012-.012.015c.004-.003.008-.007.008-.015h.004zM225.416 68.098a77.203 77.203 0 01-1.685 4.359c-3.919-4.558-8.076-8.563-12.221-11.697-7.066-5.436-15.142-8.932-23.647-11.05.191.046.387.095.579.144.246-.384.346-.855.572-1.25a21.144 21.144 0 012.069-2.555c10.877 3.09 20.941 8.416 29.312 16.892a91.742 91.742 0 015.021 5.157zM220.749 259.922c2.579 2.114 3.611 6.19 2.134 11.012-1.282.018-2.561.037-3.843.052.876-2.682 1.133-5.763.031-7.545a264.197 264.197 0 011.678-3.519z"
            fill="#000" fill-opacity=".5" />
        <path
            d="M220.622 271.653c-.035 0-.065 0-.1-.004-.568-.011-1.132-.022-1.7-.037.076-.208.149-.415.218-.626 1.282-.015 2.561-.034 3.843-.052-.058.192-.119.388-.189.583v.012c-.065.192-.134.388-.211.584-.253.55-.614 1.439-1.059 2.422-1.378.019-2.752.038-4.13.049.119-.166.238-.343.353-.527.065-.049.131-.095.196-.144.384-.286.764-.576 1.136-.877a34.02 34.02 0 001.647-1.383h-.004z"
            fill="#000" fill-opacity=".5" />
        <path
            d="M222.48 272.113c.076-.196.145-.392.211-.584-.066.192-.139.388-.211.584zM221.42 274.535c-1.378.019-2.756.038-4.134.053 0 0 0-.004.004-.004 1.378-.011 2.752-.03 4.13-.049zM220.622 271.653a34.02 34.02 0 01-1.647 1.383c-.372.297-.752.591-1.136.877-.065.049-.13.095-.196.144.438-.701.841-1.541 1.179-2.442l1.7.034a.836.836 0 00.1.004zM220.749 259.922a264.197 264.197 0 00-1.678 3.519 2.397 2.397 0 00-.111-.166c-.035-.057-.077-.109-.119-.162a2.018 2.018 0 00-.15-.173 1.6 1.6 0 00-.115-.117 1.193 1.193 0 00-.146-.132 1.21 1.21 0 00-.153-.121 1.262 1.262 0 00-.162-.113 3.457 3.457 0 00-.548-.271.614.614 0 00-.127-.045c-.038-.015-.081-.026-.119-.038a4.187 4.187 0 00-.622-.12 1.605 1.605 0 00-.199-.015 3.588 3.588 0 00-.296-.012c-.084 0-.169.004-.257.008l-.184.011c.518-1.1 1.032-2.2 1.554-3.296.035-.075.069-.151.104-.222 1.278.199 2.402.704 3.328 1.465z"
            fill="#000" fill-opacity=".5" />
        <path
            d="M219.071 263.441c1.102 1.782.845 4.863-.031 7.545-1.661.019-3.327.034-4.989.053l-2.887.034c.615-1.424.979-2.931.914-4.532a9.648 9.648 0 00-.407-3.029c.726-.407 1.447-.923 2.142-1.107.725-.245 1.374-.385 1.95-.43l.184-.011c.088-.004.173-.008.257-.008.1 0 .2.004.296.012.069.003.134.007.199.015a4.187 4.187 0 01.622.12c.038.012.081.023.119.038a3.457 3.457 0 01.675.316c.054.034.108.072.162.113.053.038.103.08.153.121.05.041.1.087.146.132.042.038.081.075.115.117a2.41 2.41 0 01.269.335c.038.053.077.109.111.166z"
            fill="#fff" />
        <path
            d="M218.975 273.036zM218.841 263.113c.042.053.081.105.119.162-.035-.057-.077-.109-.119-.162zM219.04 270.986a19.28 19.28 0 01-.218.626l-1.62-.034c-.303-.008-.606-.012-.906-.019-.453-.008-.906-.015-1.359-.026-1.316-.027-2.633-.049-3.949-.072.061-.128.119-.26.176-.388l2.887-.034c1.662-.019 3.328-.034 4.989-.053z"
            fill="#000" fill-opacity=".5" />
        <path d="M218.822 271.612c-.845-.015-1.685-.034-2.53-.049v-.004c.3.007.603.011.906.019l1.62.034h.004z"
            fill="#000" fill-opacity=".5" />
        <path
            d="M216.292 271.563c.845.015 1.685.034 2.53.052a13.861 13.861 0 01-1.179 2.442c-.245.18-.491.357-.737.531 0 0 0 .003-.003 0-1.885.022-3.773.041-5.662.052a126.671 126.671 0 005.051-3.077zM218.576 262.823zM218.43 262.691zM218.277 262.57c.053.038.103.08.153.121a1.21 1.21 0 00-.153-.121zM218.115 262.457zM217.962 262.367z"
            fill="#000" fill-opacity=".5" />
        <path
            d="M216.906 274.588c.246-.174.492-.351.737-.531-.115.184-.234.361-.353.527-.126.004-.253.004-.384.004zM217.44 262.141zM217.421 258.457c-.035.071-.069.147-.104.222-.522 1.096-1.036 2.196-1.554 3.296-.576.045-1.225.185-1.95.43-.695.184-1.416.7-2.142 1.107a9.888 9.888 0 00-1.666-3.243c2.764-1.616 5.301-2.136 7.416-1.812zM216.906 274.588c-.08.056-.157.113-.234.165.077-.052.154-.109.231-.165.003.003.003 0 .003 0z"
            fill="#000" fill-opacity=".5" />
        <path
            d="M216.672 274.753c.077-.052.154-.109.234-.165-.276.199-.552.391-.829.58h-.334c.112-.004.223-.004.334-.004.2-.136.396-.271.595-.411z"
            fill="#000" fill-opacity=".5" />
        <path
            d="M216.903 274.588c-.077.056-.154.113-.231.165-.199.14-.395.275-.595.411-.111 0-.222 0-.334.004-.268 0-.537 0-.806.004h-.003l-4.395-.102h-.054c.253-.143.507-.286.756-.43 1.889-.011 3.777-.03 5.662-.052zM216.5 261.968zM216.296 271.559v.004c-.453-.012-.902-.023-1.355-.03.453.011.906.018 1.359.026h-.004z"
            fill="#000" fill-opacity=".5" />
        <path
            d="M214.937 271.533c.453.007.902.018 1.355.03a126.671 126.671 0 01-5.051 3.077c-.361.004-.725.008-1.09.008a72.351 72.351 0 004.786-3.115zM214.934 275.172c-1.309-.031-2.614-.061-3.919-.087-.158-.008-.319-.011-.476-.015l4.395.102z"
            fill="#000" fill-opacity=".5" />
        <path
            d="M210.988 271.461c1.316.023 2.633.045 3.949.072a72.351 72.351 0 01-4.786 3.115l-1.075.011c.726-1.024 1.39-2.087 1.912-3.198zM212.078 266.541c.065 1.601-.299 3.108-.914 4.532l-1.899.015a30.456 30.456 0 002.084-2.735 58.233 58.233 0 01-3.052 2.743c-.418.003-.836.007-1.255.007a.069.069 0 00.016-.023c1.585-2.196 1.78-5.398.583-7.813l.841-.203c.069.143.157.279.264.403.925.983 1.927.618 2.925.045.288.957.434 1.978.407 3.029z"
            fill="#000" fill-opacity=".5" />
        <path
            d="M211.241 274.64c-.249.144-.503.287-.756.43l-1.006-.023c.227-.132.45-.263.672-.399.365 0 .729-.004 1.09-.008z"
            fill="#000" fill-opacity=".5" />
        <path
            d="M211.015 275.085c-.737-.019-1.474-.034-2.207-.053.088-.124.18-.248.268-.373.361 0 .718-.007 1.075-.011-.222.136-.445.267-.672.399l1.006.023h.054c.157.004.318.007.476.015zM211.164 271.073c-.057.128-.115.26-.176.388l-2.011-.034c.099-.113.195-.226.288-.339l1.899-.015zM208.977 271.427l2.011.034c-.522 1.111-1.186 2.174-1.912 3.198l-3.189.012a53.094 53.094 0 003.09-3.244zM211.671 263.512c-.998.573-2 .938-2.925-.045a1.841 1.841 0 01-.264-.403c-.369-.787-.112-1.789.66-2.249 0 0 0-.008-.004-.008.292-.192.579-.373.867-.538a9.888 9.888 0 011.666 3.243z"
            fill="#000" fill-opacity=".5" />
        <path
            d="M210.005 260.269a16.66 16.66 0 00-.867.538c.004 0 .004.004.004.008-.772.46-1.029 1.462-.66 2.249l-.841.203c-.66-1.337-1.75-2.433-3.266-2.991-3.282-.78-6.894.546-9.538 2.445a1.866 1.866 0 01-.822.912 9.5 9.5 0 00-2.237-2.875c1.074-1.299 3.427-2.599 5.323-3.318-.054.614.257 1.239.764 1.604.073.053.146.098.226.14l.123.056a.449.449 0 00.092.034l.012-.132a1.657 1.657 0 01-.749-.58 4.185 4.185 0 01-.341-1.171c.764-.283 1.447-.468 1.927-.513 4.214-1.424 8.428.249 10.85 3.391zM211.349 268.353a30.456 30.456 0 01-2.084 2.735c-.323.004-.645.004-.968.008a58.233 58.233 0 003.052-2.743z"
            fill="#000" fill-opacity=".5" />
        <path
            d="M208.297 271.096c.323-.004.645-.004.968-.008-.093.113-.189.226-.288.339-.35-.007-.699-.011-1.052-.015h.004l.019-.019c.119-.098.234-.196.349-.297z"
            fill="#000" fill-opacity=".5" />
        <path
            d="M208.977 271.427a53.094 53.094 0 01-3.09 3.244c-.449.003-.902.007-1.351.007.457-.573.898-1.156 1.32-1.755.699-.479 1.39-.984 2.069-1.511.353.004.702.008 1.052.015z"
            fill="#000" fill-opacity=".5" />
        <path
            d="M209.076 274.659c-.088.125-.18.249-.268.373-1.071-.022-2.142-.049-3.217-.071.1-.095.2-.192.296-.29l3.189-.012zM208.297 271.096a14.354 14.354 0 01-.368.312c-.353-.004-.706-.011-1.063-.015.061-.094.119-.192.176-.29.419 0 .837-.004 1.255-.007z"
            fill="#000" fill-opacity=".5" />
        <path d="M207.929 271.408h-.004l-1.059-.015c.357.004.71.011 1.063.015z" fill="#000" fill-opacity=".5" />
        <path
            d="M206.866 271.393c.353.004.706.011 1.059.019a43.285 43.285 0 01-2.069 1.511c.353-.498.691-1.01 1.01-1.53z"
            fill="#000" fill-opacity=".5" />
        <path
            d="M207.641 263.267c1.197 2.415 1.002 5.617-.583 7.813a.069.069 0 01-.016.023c-4.326.026-8.655.023-12.981 0 .35-.738.614-1.541.776-2.411.287-1.801-.05-3.537-.822-5.059.369-.2.66-.528.822-.912 2.644-1.899 6.256-3.225 9.538-2.445 1.516.558 2.606 1.654 3.266 2.991z"
            fill="#fff" />
        <path
            d="M207.042 271.103a6.982 6.982 0 01-.176.29c-.899-.015-1.797-.026-2.699-.041l-2.66-.034c-2.502-.034-5.005-.064-7.507-.087.019-.041.042-.083.061-.128 4.326.023 8.655.026 12.981 0z"
            fill="#000" fill-opacity=".5" />
        <path
            d="M204.167 271.352c.902.015 1.8.026 2.699.041-.319.52-.657 1.032-1.01 1.53a43.27 43.27 0 01-2.748 1.759c-.203.004-.407.004-.61.004a5.448 5.448 0 00-.925-.84 47.73 47.73 0 002.594-2.494zM205.887 274.671c-.096.098-.196.195-.296.29-.195-.004-.391-.012-.587-.012-.223-.007-.449-.015-.672-.019.069-.082.139-.165.204-.252.449 0 .902-.004 1.351-.007z"
            fill="#000" fill-opacity=".5" />
        <path
            d="M204.332 274.93c.223.004.449.012.672.019-.223-.007-.449-.011-.672-.015v-.004zM205.856 272.923a36.877 36.877 0 01-1.32 1.755c-.476.004-.952.004-1.428.004a43.27 43.27 0 002.748-1.759z"
            fill="#000" fill-opacity=".5" />
        <path
            d="M204.536 274.678c-.065.087-.135.17-.204.252-.387-.007-.771-.018-1.159-.022l-.426-.011c.123-.072.242-.144.361-.215.476 0 .952 0 1.428-.004z"
            fill="#000" fill-opacity=".5" />
        <path
            d="M204.332 274.93l-1.159-.022c.388 0 .772.015 1.159.022zM201.507 271.318l2.66.034a47.73 47.73 0 01-2.594 2.494c-.63-.456-1.355-.788-2.092-1.029-.1-.034-.204-.064-.307-.098.794-.444 1.57-.911 2.333-1.401zM203.108 274.682c-.119.071-.238.143-.361.215h-.069a2.844 2.844 0 00-.18-.211c.203 0 .407 0 .61-.004zM202.743 274.897s-.027.018-.042.026c.015-.011.023-.019.039-.026h.003z"
            fill="#000" fill-opacity=".5" />
        <path
            d="M202.74 274.897l-.039.026a.151.151 0 00-.023-.026h.062zM202.678 274.897c-.748-.019-1.497-.034-2.241-.049.061-.053.122-.106.18-.159h1.881c.065.072.126.14.18.211v-.003zM202.498 274.686h-1.881c.322-.275.641-.554.956-.844a5.448 5.448 0 01.925.84v.004z"
            fill="#000" fill-opacity=".5" />
        <path
            d="M201.573 273.846c-.315.29-.634.568-.956.843-2.107.004-4.211.004-6.314.004-.99-.011-1.98-.022-2.975-.037 1.098-.987 2.023-2.11 2.672-3.425 2.502.023 5.005.053 7.507.087-.763.49-1.539.957-2.333 1.401.103.034.207.064.307.098.737.241 1.462.573 2.092 1.029z"
            fill="#000" fill-opacity=".5" />
        <path
            d="M200.617 274.689c-.058.053-.119.106-.18.159-4.292-.095-8.587-.177-12.878-.238l1.582.023 2.176.034.011-.011c.995.015 1.985.026 2.975.037 2.103 0 4.207 0 6.314-.004zM198.318 259.142l-.012.132a.449.449 0 01-.092-.034l-.123-.056a2.446 2.446 0 01-.226-.14c-.507-.365-.818-.99-.764-1.604.042-.015.085-.031.127-.049.054.391.165.787.341 1.171.208.283.465.471.749.58zM198.091 259.184z"
            fill="#000" fill-opacity=".5" />
        <path
            d="M197.193 257.021c.008.125.019.245.035.37a2.207 2.207 0 01-.127.049c.008-.14.039-.283.092-.419zM194.015 263.633c.772 1.522 1.109 3.258.822 5.059a9.784 9.784 0 01-.776 2.411c-1.37-.011-2.744-.023-4.114-.038 3.112-4.159-.376-10.97-6.441-8.63-2.222 3.959-6.318-1.198-1.808-3.104 3.47-1.865 7.408-.927 10.08 1.427-.972 1.172-.902 2.344 1.473 3.09.277-.012.538-.087.764-.215z"
            fill="#000" fill-opacity=".5" />
        <path
            d="M194.061 271.103c-.019.045-.042.087-.061.128-.518-.004-1.036-.011-1.555-.015-.23 0-.46-.004-.691-.004-.633-.007-1.27-.011-1.907-.019.034-.041.069-.082.1-.128 1.37.015 2.744.027 4.114.038z"
            fill="#000" fill-opacity=".5" />
        <path
            d="M192.445 271.216c.519.004 1.037.011 1.555.015-.649 1.315-1.574 2.438-2.672 3.425-.725-.012-1.45-.019-2.18-.031a30.865 30.865 0 003.297-3.409zM194.015 263.633a1.696 1.696 0 01-.764.215c-2.375-.746-2.445-1.918-1.473-3.09a9.5 9.5 0 012.237 2.875z"
            fill="#000" fill-opacity=".5" />
        <path
            d="M191.754 271.212c.231 0 .461.004.691.004a30.865 30.865 0 01-3.297 3.409c-.499-.007-1.001-.015-1.504-.018 1.512-.083 1.999-1.617 1.477-2.645.273-.237.511-.494.726-.765.633.004 1.27.008 1.907.015z"
            fill="#000" fill-opacity=".5" />
        <path
            d="M189.847 271.193c.637.008 1.274.012 1.907.019-.637-.007-1.274-.011-1.907-.015v-.004zM191.328 274.656l-.011.011-2.176-.034.007-.008c.73.012 1.455.019 2.18.031zM189.947 271.065c-.031.046-.066.087-.1.128l-1.547-.011h-.004a1.147 1.147 0 00-.207-.071c-.038-.015-.081-.023-.123-.034a1.929 1.929 0 00-.161-.027c-.015 0-.031 0-.05-.007.729.007 1.462.019 2.192.022zM189.847 271.193l-1.547-.011 1.547.011z"
            fill="#000" fill-opacity=".5" />
        <path
            d="M188.3 271.182c.514.004 1.033.008 1.547.015a5.674 5.674 0 01-.726.765 1.641 1.641 0 00-.821-.78zM191.083 46.05a21.144 21.144 0 00-2.069 2.553c-.226.396-.326.867-.572 1.251a34.384 34.384 0 00-.579-.143c-.365-.094-.726-.18-1.094-.264-.023-.007-.046-.015-.073-.015-.227-.056-.457-.11-.687-.158-.307-.072-.614-.14-.922-.203-.214-.731-.145-1.571.323-2.212.411-.652.852-1.292 1.328-1.917 1.462.331 2.909.7 4.345 1.107zM189.121 271.962c.522 1.028.035 2.562-1.477 2.645-.864-.016-1.727-.027-2.591-.038a70.896 70.896 0 002.813-1.722 6.69 6.69 0 001.255-.885zM189.148 274.625l-.007.008-1.582-.023c.031 0 .058 0 .085-.003.503.003 1.005.011 1.504.018z"
            fill="#000" fill-opacity=".5" />
        <path
            d="M188.3 271.182c.38.166.653.445.821.78a6.69 6.69 0 01-1.255.885 70.896 70.896 0 01-2.813 1.722h-.131a82.29 82.29 0 01-1.297-.045 119.514 119.514 0 003.109-2.573c.261-.249.518-.505.783-.773h.204c.191 0 .383.004.575.004h.004z"
            fill="#000" fill-opacity=".5" />
        <path
            d="M188.296 271.182c-.192 0-.384-.004-.575-.004h-.204c.046-.045.092-.09.138-.139a.09.09 0 00.046 0c.008.004.016.004.023.004.031 0 .058.004.081.007.058.008.107.015.161.027a.62.62 0 01.123.034c.073.018.142.041.207.071z"
            fill="#000" fill-opacity=".5" />
        <path
            d="M187.966 271.077a.62.62 0 01.123.034c-.038-.015-.081-.023-.123-.034zM187.863 49.71zM187.805 271.05c-.023 0-.05-.007-.081-.007h.031l.05.007zM187.724 271.043s-.015 0-.023-.004c.008 0 .016 0 .023.004zM187.701 271.039s-.03.004-.046 0h.046zM187.655 271.039c-.046.049-.092.094-.138.139-.265.268-.522.524-.783.773a119.514 119.514 0 01-3.109 2.573c-4.161-.17-8.314-.524-12.478-.58-1.121-.061-2.249-.046-3.381-.016a1.795 1.795 0 01-.166-1.894c1.705-2.223 6.525-.803 9.139-1.18 3.639.08 7.278.144 10.916.185z"
            fill="#000" fill-opacity=".5" />
        <path
            d="M187.54 271.031c.038 0 .077 0 .115.008-3.638-.041-7.277-.105-10.916-.185-2.614.377-7.434-1.043-9.139 1.18a1.795 1.795 0 00.166 1.894l-.511.012c-.284-.644-.564-1.292-.837-1.944l-.011-.109v-.027c-.008-.034-.012-.064-.016-.094-.007-.075-.023-.147-.038-.218l-.011-.072c-.012-.041-.02-.087-.031-.128l-.035-.132c.008-.004.016-.004.027-.007h-.031a6.896 6.896 0 00-.303-.833c2.096-.015 4.195-.056 6.287.011 5.097.128 10.183.626 15.284.644zM187.644 274.607c-.027.003-.054.003-.085.003h-.061c-.664-.011-1.324-.019-1.984-.026-.035-.004-.066-.004-.1-.004h-.096c-.089-.004-.177-.004-.269-.007 0-.004.004-.004.004-.004.864.011 1.727.022 2.591.038z"
            fill="#000" fill-opacity=".5" />
        <path
            d="M187.498 274.61h-.062c-.518-.007-1.036-.015-1.554-.019-.123-.003-.246-.003-.368-.007.66.007 1.32.015 1.984.026z"
            fill="#000" fill-opacity=".5" />
        <path
            d="M187.436 274.61c-.518 0-1.04-.007-1.554-.019.518 0 1.036.012 1.554.019zM186.738 44.942a26.477 26.477 0 00-1.328 1.917c-.468.64-.537 1.48-.323 2.212-6.647-1.417-13.514-2.042-20.327-2.14a57.983 57.983 0 00-2.683-.064c-7.461 0-14.815 1.412-22.02 3.349a33.88 33.88 0 00-2.579-3.895c6.636-1.88 13.422-3.24 20.281-3.768 9.795-.346 19.637.268 28.979 2.389zM185.514 274.584h-.027c-.023 0-.046 0-.073-.004.034 0 .065 0 .1.004z"
            fill="#000" fill-opacity=".5" />
        <path
            d="M185.487 274.584c-.135-.004-.265-.004-.4-.004h.327c.027.004.05.004.073.004zM185.318 274.58h-.284s.004 0 .004-.004c.092 0 .184.004.28.004z"
            fill="#000" fill-opacity=".5" />
        <path d="M185.318 274.58c-.096 0-.188-.004-.28-.004.003 0 .007-.003.011-.003.092.003.18.003.269.007z"
            fill="#000" fill-opacity=".5" />
        <path d="M185.053 274.569s-.004 0-.004.004c-.042 0-.084-.004-.127-.004h.131z" fill="#000" fill-opacity=".5" />
        <path
            d="M185.049 274.573l-.011.003c-.488-.003-.971-.011-1.459-.015.004-.003.012-.007.015-.011.442.004.887.011 1.328.019.043 0 .085.004.127.004z"
            fill="#000" fill-opacity=".5" />
        <path
            d="M185.038 274.576l-.004.004c-.484-.007-.971-.015-1.455-.019.488 0 .971.012 1.459.015zM184.922 274.569c-.441-.008-.886-.015-1.328-.019.012-.008.02-.019.031-.026.434.018.868.034 1.297.045z"
            fill="#000" fill-opacity=".5" />
        <path
            d="M183.625 274.524s-.019.018-.031.026c-5.104-.068-10.205-.124-15.214-.105a1.774 1.774 0 01-.614-.517c1.132-.03 2.26-.045 3.381.016 4.164.056 8.317.41 12.478.58zM169.067 243.75c2.353-.03 2.368 3.59.004 3.579-3.033.075-6.069.097-9.101.12.038-.746.184-1.507-.276-2.106a1.772 1.772 0 00-.346-.331 1.727 1.727 0 00-1.078-.373v-.754h.065c3.577-.022 7.154-.052 10.732-.135zM167.255 273.94c-.422.011-.841.026-1.263.034-.142.003-.284.007-.426.007-.748.015-1.497.019-2.245-.007-.227-.535-.449-1.07-.672-1.601a6.015 6.015 0 00-.161-.46c-.023-.064-.05-.128-.077-.192a17.972 17.972 0 01-.115-.268c-.031-.079-.069-.154-.104-.233-.13-.294-.268-.595-.387-.893.03.004.057.011.088.015.042 0 .084.004.127.004.146.365.295.727.445 1.077.104.253.207.498.315.742.107.245.207.486.311.72.314.591.921.866 1.531.866a2.276 2.276 0 00.33-.026h.012a.93.93 0 01.103-.019.73.73 0 00.1-.03.626.626 0 00.115-.034c.023-.004.046-.015.069-.022h.004s.038-.016.058-.027a.907.907 0 00.076-.034.332.332 0 00.066-.03h.004s.03-.015.042-.026a.022.022 0 00.019-.012c.023-.011.046-.026.069-.037a.991.991 0 00.088-.061.395.395 0 00.085-.064c.073-.056.138-.12.199-.184.008-.008.012-.015.02-.019l.03-.041a.328.328 0 01.035-.038l.019-.03a1.452 1.452 0 00.215-.411c.019-.049.034-.098.046-.151v-.184c0-.087 0-.173-.012-.26v-.015c.273.652.553 1.3.837 1.944h.004z"
            fill="#000" fill-opacity=".5" />
        <path d="M166.43 272.271c0-.087 0-.173-.012-.26.008.087.012.173.012.26z" fill="#000" fill-opacity=".5" />
        <path
            d="M166.43 272.271v.184a1.554 1.554 0 01-.088.257 1.443 1.443 0 01-.173.305c-.008.011-.016.019-.023.03a.325.325 0 01-.031.038c-.011.015-.023.026-.034.041l-.016.019a1.749 1.749 0 01-.199.184 1.437 1.437 0 01-.173.125c-.023.011-.046.026-.069.037-.004.004-.012.008-.019.012a.614.614 0 01-.108.056c-.023.012-.05.023-.077.034l-.057.023a.392.392 0 01-.073.026.65.65 0 01-.115.034c-.058.019-.115.03-.177.041-.011.004-.027.004-.038.008-.315-.908-.062-2.019 1.163-2.456l.299.723h.004v.019c.008.087.012.173.012.26h-.008z"
            fill="#000" fill-opacity=".5" />
        <path d="M166.418 271.996h-.004a1.906 1.906 0 00-.007-.121v.012a.576.576 0 01.011.109z" fill="#000"
            fill-opacity=".5" />
        <path d="M166.407 271.887a.576.576 0 01.011.109l-.011-.109z" fill="#000" fill-opacity=".5" />
        <path
            d="M166.391 271.766c.012.075.02.151.023.226l-.299-.723c.05-.019.104-.038.157-.053h.004l.035.132c.008.03.015.06.019.09l.023.11c.015.071.031.143.038.218z"
            fill="#000" fill-opacity=".5" />
        <path
            d="M166.407 271.86v.015a1.062 1.062 0 00-.016-.109c.004.03.008.06.016.094zM166.338 272.712a1.554 1.554 0 000 .003v-.003zM166.342 271.476l.011.072-.023-.11c0 .012.008.023.012.038z"
            fill="#000" fill-opacity=".5" />
        <path
            d="M166.311 271.348c.011.041.019.087.031.128l-.012-.038a.721.721 0 00-.019-.09zM166.303 271.209s-.019.003-.027.007h-.004v-.007h.031zM166.272 271.209v.007a1.928 1.928 0 00-.157.053c-.004-.019-.011-.034-.019-.053.057 0 .115 0 .176-.007z"
            fill="#000" fill-opacity=".5" />
        <path
            d="M166.272 271.209c-.061.007-.119.007-.176.007a52.514 52.514 0 01-.338-.84h.211c.119.275.223.554.303.833zM166.165 273.017l-.019.03h-.004l.023-.03zM166.146 273.047s-.023.023-.035.038a.325.325 0 00.031-.038h.004zM166.096 271.216c.008.019.015.034.019.053-1.224.437-1.478 1.548-1.163 2.456a2.315 2.315 0 01-.165.019c-.054.007-.111.007-.165.007-.61 0-1.217-.275-1.531-.866-.104-.234-.204-.475-.311-.72-.104-.241-.208-.489-.315-.742 1.14-.068 2.276-.143 3.393-.211.077.004.157.008.238.004z"
            fill="#000" fill-opacity=".5" />
        <path
            d="M166.111 273.085l-.03.041s.023-.026.034-.041h-.004zM166.096 271.216c-.081.004-.161 0-.238-.004-1.117.068-2.253.143-3.393.211-.15-.35-.299-.712-.445-1.077 1.243.038 2.491.041 3.738.03.111.283.223.561.338.84zM166.081 273.126l-.02.019.016-.019h.004z"
            fill="#000" fill-opacity=".5" />
        <path
            d="M165.969 270.376h-.211a53.607 53.607 0 01-.768-2.038c.308.686.688 1.356.979 2.038zM165.862 273.329a.395.395 0 01-.085.064 1.437 1.437 0 00.085-.064z"
            fill="#000" fill-opacity=".5" />
        <path
            d="M164.242 270.022c.096-.064.184-.143.261-.226a2.194 2.194 0 01-.261.226zm1.516.354a95.008 95.008 0 01-3.738-.03 83.42 83.42 0 01-.614-1.537c-.023-.309 0-.618.096-.931.568-1.371 2.429-1.371 3.181-.331.004 0 .004.004.004.004.085.267.188.527.303.787.242.686.499 1.364.768 2.038zM165.62 273.491s-.012.012-.019.012c.007-.004.015-.008.019-.012zM165.601 273.503s-.027.019-.042.026h-.004s.027-.015.042-.026h.004z"
            fill="#000" fill-opacity=".5" />
        <path
            d="M165.597 273.503s-.027.019-.042.026a.614.614 0 00.042-.026zM165.413 273.593l-.058.027s.038-.019.058-.027zM165.355 273.616s0 .004-.004.004c-.023.007-.046.018-.069.022a.392.392 0 00.073-.026zM165.167 273.676a.73.73 0 01-.1.03.93.93 0 00-.103.019h-.012s.027-.004.038-.008c.062-.011.119-.022.177-.041zM164.787 273.744c-.054.007-.111.007-.165.007.054 0 .111-.007.165-.007zM164.99 268.338a1.68 1.68 0 00-.303-.787c.085.267.188.527.303.787zM164.557 267.068c.034.162.077.321.126.479-.752-1.04-2.613-1.04-3.181.331a2.56 2.56 0 00-.096.931c-1.344-3.451-2.68-7.41-3.628-11.317.687-3.319 1.167-6.675 1.497-10.039.231-.004.465-.004.695-.004-.019.26-.019.52.019.772.503 6.476 2.499 12.715 4.568 18.847zM164.242 270.022c.096-.064.184-.143.261-.226a2.194 2.194 0 01-.261.226zM162.78 272.165c-.104-.241-.208-.489-.315-.742.104.253.207.498.315.742zM162.488 271.913c-.027-.064-.05-.128-.077-.192.027.064.054.128.077.192zM162.296 271.453c-.034-.079-.069-.154-.104-.233.035.079.073.154.104.233zM162.02 270.346c-.043 0-.085-.004-.127-.004-.031-.004-.058-.011-.088-.015-.204-.501-.365-1.006-.399-1.518.203.524.41 1.04.614 1.537z"
            fill="#000" fill-opacity=".5" />
        <path
            d="M159.694 245.343c.46.599.314 1.36.276 2.106-.23 0-.464 0-.695.004a4.72 4.72 0 00.027-.264c.254-.618.089-1.288-.315-1.767l.707-.079z"
            fill="#000" fill-opacity=".5" />
        <path
            d="M159.348 245.012c.142.105.254.214.346.331l-.707.079a1.791 1.791 0 00-1.389-.651h-.019a1.662 1.662 0 01.384-.106c.046-.007.096-.015.142-.019.053 0 .107-.007.161-.007h.004c.376 0 .752.117 1.078.373zM158.987 245.422c.404.479.569 1.149.315 1.767a4.72 4.72 0 01-.027.264c-.948.004-1.892.011-2.84.015.012-.595.042-1.168.1-1.725a.128.128 0 01.019-.034c.81-.098 1.624-.192 2.433-.287z"
            fill="#000" fill-opacity=".5" />
        <path
            d="M156.435 247.468c.948-.004 1.892-.011 2.84-.015-.33 3.364-.81 6.72-1.497 10.039-.852-3.522-1.393-6.999-1.343-10.024zM158.266 243.885v.754c-.054 0-.108.004-.161.007-.046.004-.096.012-.142.019a.652.652 0 00-.096.019 1.662 1.662 0 00-.288.087h-.004a1.89 1.89 0 00-.299.026c-.046.008-.092.015-.135.026a1.701 1.701 0 00-.464.181.585.585 0 00-.1.064 1.163 1.163 0 00-.184.147c-.035.03-.069.068-.104.106-.007.007-.019.018-.023.03-.019.019-.034.037-.054.06-.026.038-.057.079-.084.121-.023.034-.046.067-.065.105-.027.042-.05.087-.069.128-.004.004-.004.008-.008.011-.242.498-.342 1.112-.399 1.699-2.629.027-5.262.068-7.892.162-1.001.012-1.842-.806-1.842-1.789.061-2.162 2.576-1.774 4.122-1.865 2.764-.071 5.527-.086 8.291-.098z"
            fill="#000" fill-opacity=".5" />
        <path
            d="M158.266 244.639c-.054 0-.108.004-.161.007.053 0 .107-.007.161-.007zM157.867 244.684zM158.987 245.422c-.809.095-1.623.189-2.433.287a1.902 1.902 0 011.013-.935h.031a1.795 1.795 0 011.389.652v-.004zM157.778 257.492c-.003.034-.011.068-.019.102-.575 1.966-2.057 12.032-4.456 15.253.031-.169.035-.346.012-.52-.139-.99-1.067-1.627-2.054-1.529-.307.03-.618.064-.925.09.296-.836.772-1.699.96-2.407 1.009-2.912 1.723-5.914 2.341-8.845.779-3.748 1.501-7.516 1.888-11.324.016-.26.035-.546.062-.837.284 0 .564-.003.848-.007-.05 3.025.491 6.502 1.343 10.024zM157.575 244.771h-.008c-.103 0-.199.011-.291.022.096-.015.192-.022.299-.026v.004z"
            fill="#000" fill-opacity=".5" />
        <path
            d="M157.276 244.797c.092-.011.188-.023.291-.023-.43.17-.802.498-1.013.935l-.564.067s0-.007.004-.011c.019-.041.042-.086.069-.128.019-.038.042-.071.065-.105.027-.042.058-.083.084-.121.016-.023.035-.041.054-.06.004-.012.016-.023.023-.03a1.646 1.646 0 01.288-.253c.031-.022.065-.041.1-.064.027-.015.057-.034.088-.049.115-.056.238-.101.376-.132.043-.007.089-.018.135-.026z"
            fill="#000" fill-opacity=".5" />
        <path
            d="M157.141 244.823c.043-.007.089-.018.135-.026-.046.008-.092.015-.135.026zM156.677 245.004c.027-.015.057-.034.088-.049a.622.622 0 00-.088.049zM156.577 245.068c.031-.022.065-.041.1-.064a.585.585 0 00-.1.064zM156.393 245.215zM156.554 245.709s-.015.022-.019.034c-.058.557-.088 1.13-.1 1.725-.284 0-.564.007-.848.007.057-.587.157-1.201.399-1.699h.004l.564-.067zM156.289 245.321c.035-.038.069-.072.104-.106-.035.03-.069.068-.104.106zM156.266 245.351s-.038.037-.054.06c.02-.023.035-.041.054-.06z"
            fill="#000" fill-opacity=".5" />
        <path
            d="M155.994 245.765s-.004.008-.004.011h-.004l.008-.011zM153.315 272.327c.023.174.019.351-.012.52a3.199 3.199 0 01-.18.234c.111-.618-.081-1.281-.707-1.692-.652-.463-1.42-.316-2.164-.244a6.41 6.41 0 01.084-.257c.307-.026.618-.06.925-.09.987-.098 1.915.539 2.054 1.529z"
            fill="#000" fill-opacity=".5" />
        <path
            d="M153.123 273.081c.061-.072.122-.151.18-.234a1.838 1.838 0 01-.43.904c.123-.207.207-.433.25-.67zM152.416 271.389c.626.411.818 1.074.707 1.692-.599.701-1.255.968-1.962.584-1.19-.573-1.216-1.515-.909-2.52.744-.072 1.512-.219 2.164.244z"
            fill="#000" fill-opacity=".5" />
        <path
            d="M153.123 273.081a2.011 2.011 0 01-.25.67c-.28.324-.668.547-1.117.592-3.074.286-6.152.539-9.235.719h-.556c-.061 0-.123 0-.184-.007a27.903 27.903 0 002.395-3.602c1.999-.045 4.003-.154 5.987-.301.031-.004.058-.004.089-.011-.307 1.006-.281 1.947.909 2.52.707.384 1.363.117 1.962-.584v.004z"
            fill="#000" fill-opacity=".5" />
        <path
            d="M151.756 274.343a1.71 1.71 0 001.117-.588c-.315.524-.863.901-1.531.87.038 0 .076-.003.115-.007a1.522 1.522 0 01-.261-.004 1.452 1.452 0 01-.184-.034c.061.019.122.03.184.034.05.008.096.011.146.011-2.933.268-5.877.411-8.821.437 3.083-.18 6.161-.433 9.235-.719zM150.336 270.888a6.41 6.41 0 00-.084.257c-.031.007-.058.007-.089.011-1.984.147-3.988.256-5.987.301.015-.03.034-.06.05-.09 2.038-.128 4.076-.283 6.11-.479z"
            fill="#000" fill-opacity=".5" />
        <path d="M144.226 271.367c-.016.03-.035.06-.05.09-.584.011-1.167.019-1.75.019.602-.034 1.201-.072 1.8-.109z"
            fill="#000" fill-opacity=".5" />
        <path
            d="M142.426 271.476c.583 0 1.166-.008 1.75-.019a27.903 27.903 0 01-2.395 3.602l-4.633-.17a22.299 22.299 0 001.75-2.027c.085-.109.169-.222.254-.335.203-.275.403-.554.594-.836a4.27 4.27 0 00.818-.113c.606-.034 1.217-.064 1.823-.102a.065.065 0 00.039 0zM141.965 275.066h.556c-.257.011-.514.026-.775.042l.035-.046c.061.004.123.004.184.008v-.004zM142.387 271.476z"
            fill="#000" fill-opacity=".5" />
        <path
            d="M140.157 271.457a87.14 87.14 0 002.23.019c-.606.038-1.217.068-1.823.102a4.27 4.27 0 01-.818.113c.054-.079.112-.162.165-.245l.246.011zM141.781 275.059l-.035.045-1.324.068c-.511.022-1.017.041-1.528.06-.721.026-1.439.049-2.157.064a14.2 14.2 0 00.407-.407h.004l4.633.17z"
            fill="#000" fill-opacity=".5" />
        <path
            d="M140.422 275.172c-.511.022-1.017.041-1.528.06.507-.019 1.017-.038 1.528-.06zM140.057 50.216l.004.003c-.683.185-1.362.37-2.042.562.676-.192 1.355-.38 2.038-.565zM139.911 271.446c-.053.083-.111.166-.165.245a25.34 25.34 0 01-.848 1.171 22.299 22.299 0 01-1.75 2.027h-.004c-6.751-.26-13.503-.55-20.247-.938-.353-1.074-.456-2.283-.234-3.609 7.746.452 15.495.784 23.248 1.104z"
            fill="#000" fill-opacity=".5" />
        <path
            d="M139.152 272.527a7.37 7.37 0 01-.254.335c.085-.109.169-.222.254-.335zM140.057 50.216a177.634 177.634 0 00-4.072 1.153c-.676-1.13-1.405-2.227-2.28-3.233a15.634 15.634 0 00-.472-.542c1.409-.449 2.825-.874 4.245-1.273a33.88 33.88 0 012.579 3.895zM138.019 50.78z"
            fill="#000" fill-opacity=".5" />
        <path
            d="M137.478 46.32c-1.42.4-2.836.825-4.245 1.274-8.202-9.275-21.387-13.362-33.608-11.332-7.764 1.277-13.898 5.496-13.982 13.795-.18 6.981 1.404 14 3.96 20.494.48 1.149.995 2.283 1.555 3.394a93.207 93.207 0 00-2.694 3.323c-5.404-10.025-8.076-22.908-5.915-32.59 2.069-8.356 11.235-12.654 19.345-13.166 13.856-1.368 27.612 4.373 35.584 14.809z"
            fill="#000" fill-opacity=".5" />
        <path
            d="M133.705 48.136c.875 1.006 1.604 2.102 2.28 3.232a310.518 310.518 0 00-5.416 1.658c-15.142 4.87-28.188 13.38-37.98 25.443.22-.27.442-.538.665-.806a41.777 41.777 0 01-2.096-3.718 100.872 100.872 0 014.702-5.172c7.469-7.508 16.681-13.204 26.492-17.303 3.569-1.398 7.2-2.708 10.881-3.876.161.177.319.358.472.542zM129.863 258.118c1.424 1.763 1.727 4.897.211 6.619-1.201.987-3.213-.136-2.921-1.662.787-1.849-.295-3.552-2.222-4.016-1.278.113-2.403 1.018-3.385 1.775-2.637 2.332-4.073 5.684-4.791 9.037-.034.158-.065.317-.092.471a378.989 378.989 0 01-3.527-.211c.196-2.072.798-4.163 1.685-6.088.936.581 2.41.411 2.787-.96.222-1.081.122-2.166-.2-3.21 3.508-4.294 8.494-6.193 12.455-1.755z"
            fill="#000" fill-opacity=".5" />
        <path
            d="M133.233 47.594a175.036 175.036 0 00-10.881 3.876c-9.811 4.099-19.023 9.795-26.492 17.303a100.872 100.872 0 00-4.702 5.172 52.282 52.282 0 01-1.554-3.394c-2.556-6.495-4.142-13.513-3.961-20.494.084-8.299 6.218-12.518 13.982-13.795 12.221-2.03 25.406 2.057 33.608 11.332z"
            fill="#fff" />
        <path
            d="M117.408 259.873c.322 1.044.422 2.129.2 3.21-.377 1.371-1.851 1.541-2.787.96a19.481 19.481 0 012.587-4.17zM116.897 273.951a7.039 7.039 0 01-.41-.023l.41.023zM116.897 273.951l-.41-.023c-.718-.041-1.432-.082-2.15-.128-.372-.018-.744-.045-1.117-.067a14.287 14.287 0 01-.084-3.602c1.174.075 2.353.147 3.527.211-.222 1.326-.119 2.535.234 3.609z"
            fill="#000" fill-opacity=".5" />
        <path
            d="M117.408 259.873a19.481 19.481 0 00-2.587 4.17c-.599-.369-.979-1.043-.729-1.91-1.708-7.828-8.702-7.447-13.142-3.695-.876-.889-1.74-1.79-2.591-2.712a13.388 13.388 0 012.867-2.02c3.255-1.695 7.273-2.008 11.488.061 1.965 1.439 3.942 3.665 4.694 6.106zM113.22 273.733c.373.022.745.049 1.117.067-4.46-.267-8.916-.584-13.364-.964a11.028 11.028 0 01-1.171-.991.473.473 0 01-.077-.071 9.405 9.405 0 01-.257-.264 5.145 5.145 0 01-.242-.264l-.08-.09a4.412 4.412 0 01-.242-.294 3.342 3.342 0 01-.18-.23c-.097-.128-.189-.26-.28-.392a9.494 9.494 0 01-.342-.531 7.973 7.973 0 01-.334-.749c5.116.467 10.24.851 15.368 1.171-.119 1.217-.1 2.434.084 3.602z"
            fill="#000" fill-opacity=".5" />
        <path
            d="M114.092 262.133c-.25.867.13 1.541.729 1.91-.887 1.925-1.489 4.016-1.685 6.088a537.008 537.008 0 01-15.368-1.171c-1.079-2.743-.591-5.452.752-7.689h.004l.011-.019c.077-.124.154-.249.234-.369 0-.004 0-.008.008-.012.004-.007.008-.015.012-.018.08-.125.165-.245.25-.362.091-.128.187-.249.283-.373.07-.09.142-.181.219-.267l.08-.095a.784.784 0 01.061-.071 8.684 8.684 0 01.25-.279c.189-.203.384-.396.584-.58.031-.03.061-.06.092-.087.054-.049.107-.098.165-.147l.104-.09c.023-.019.046-.042.073-.064 4.44-3.752 11.434-4.133 13.142 3.695zM101.061 253.401l.165.305a13.388 13.388 0 00-2.867 2.02 9.941 9.941 0 00-.457.433c-.008.007-.011.015-.02.019-.141.143-.276.286-.41.433-.004 0-.004.004-.008.007-.03.034-.065.068-.096.106-.038.041-.072.083-.11.124-.055.06-.105.117-.154.181-.02.019-.035.038-.054.06a2.192 2.192 0 01-.054.064c-.1.117-.196.241-.291.362a.281.281 0 01-.043.053c-.015.022-.03.041-.042.06-.035.045-.07.09-.1.136-.103.135-.203.275-.3.414a9.486 9.486 0 00-.275.411c-1.916 2.964-2.768 6.592-2.058 9.994a85.384 85.384 0 01-1.42-.147h-.004a7.306 7.306 0 01-1.06-.9c-2.805-3.349-2.14-9.821.945-13.306.038-.045.077-.087.115-.128.085-.091.165-.173.25-.256.1-.102.2-.196.303-.287a5.3 5.3 0 01.319-.267 6.476 6.476 0 011.427-.878 6.086 6.086 0 012.407-.542c.96.03 1.194.795 1.773 1.394.914.421 1.631.41 2.119.135z"
            fill="#fff" />
        <path
            d="M97.557 248.308c4.272.542 5.089 4.2 3.504 5.093-.488.275-1.205.286-2.119-.135-.58-.599-.813-1.364-1.773-1.394a6.086 6.086 0 00-2.065.399c.046-.019.092-.038.142-.053a113.445 113.445 0 01-2.207-2.678c-.058-.072-.115-.143-.173-.219a9.46 9.46 0 014.69-1.013zM100.973 272.836a67.39 67.39 0 01-.968-.083.917.917 0 01-.138-.011c.085-.222.13-.464.13-.705a2.97 2.97 0 01-.195-.192c.368.358.76.69 1.171.991z"
            fill="#000" fill-opacity=".5" />
        <path
            d="M100.973 272.836a67.39 67.39 0 01-.968-.083c.323.03.645.06.968.083zM100.877 258.502c.023-.019.046-.042.073-.064-.023.022-.05.041-.073.064z"
            fill="#000" fill-opacity=".5" />
        <path
            d="M100.95 258.438c-.273-.279-.549-.558-.822-.84a12.647 12.647 0 00-2.86 2.396c-.103-.106-.203-.211-.306-.32.687-.257 1.186-.916 1.186-1.669 0-.558-.269-1.059-.684-1.387.004-.003.004-.007.008-.007.135-.147.273-.29.41-.433.008-.004.012-.012.02-.019a9.941 9.941 0 01.457-.433c.852.922 1.715 1.823 2.591 2.712z"
            fill="#000" fill-opacity=".5" />
        <path
            d="M100.128 257.598c.273.282.549.561.822.84-.023.022-.05.041-.073.064l-.104.09c-.058.049-.111.098-.165.147l-.081.072c-.003.007-.007.011-.011.015-.2.184-.395.377-.584.58-.023.026-.046.053-.069.075a4.499 4.499 0 00-.18.204.784.784 0 00-.054.06l-.011.011a1.684 1.684 0 00-.077.095 4.72 4.72 0 00-.219.267c-.05.06-.092.117-.142.177l-.142.196a5.97 5.97 0 00-.25.362c-.007.003-.01.011-.01.018-.005.004-.009.008-.009.012-.046.064-.084.128-.122.192-.043.056-.077.117-.112.177a.055.055 0 00-.015.019 80.73 80.73 0 01-1.251-1.277 12.647 12.647 0 012.859-2.396z"
            fill="#000" fill-opacity=".5" />
        <path d="M100.608 258.739c-.031.027-.061.057-.092.087 0-.004.008-.008.011-.015.027-.023.054-.045.081-.072z"
            fill="#000" fill-opacity=".5" />
        <path
            d="M100.527 258.811c.027-.023.054-.045.081-.072l-.081.072zM99.802 271.845c.061.068.13.132.196.192 0 .241-.046.483-.13.705-.162-.015-.327-.027-.492-.045-.219-.015-.438-.038-.66-.057-.357-.03-.714-.064-1.075-.098-.46-.041-.921-.087-1.382-.132-.28-.022-.56-.052-.844-.079a11.097 11.097 0 01-1.351-3.029c1.32.554 2.775.833 4.164.927.073 0 .146 0 .215.011.092.132.184.264.28.392.058.079.12.155.18.23.078.102.158.2.243.294l.08.09c.077.091.158.177.242.264.08.09.169.177.257.264.023.026.05.052.077.071zM99.863 259.481a.953.953 0 00.07-.075c-.024.026-.047.053-.07.075zM99.683 259.685z"
            fill="#000" fill-opacity=".5" />
        <path
            d="M99.725 271.774a9.405 9.405 0 01-.257-.264c.08.09.169.177.257.264zM99.63 259.745s-.008.008-.008.011l.011-.011h-.004zM99.621 259.756l-.08.095c.023-.031.05-.064.077-.095h.004zM99.376 272.697c-.223-.015-.442-.038-.66-.057.222.019.441.042.66.057zM99.322 260.118c-.096.124-.192.245-.284.373l.142-.196.142-.177z"
            fill="#000" fill-opacity=".5" />
        <path
            d="M99.18 260.295l.142-.177c-.05.06-.092.117-.142.177zM98.789 260.853zM98.904 270.862zM98.789 260.853l-.012.018c0-.007.004-.015.012-.018zM98.77 260.883c-.081.12-.158.245-.235.369.035-.06.073-.121.112-.177.038-.064.076-.128.122-.192z"
            fill="#000" fill-opacity=".5" />
        <path
            d="M98.535 261.252c.035-.06.073-.121.112-.177-.043.056-.077.117-.112.177zM98.535 261.252l-.011.023h-.004s.008-.016.015-.023zM97.269 259.994c.414.433.829.855 1.251 1.277-1.343 2.237-1.83 4.946-.752 7.689a462.79 462.79 0 01-3.88-.377c-.71-3.402.141-7.03 2.056-9.994.308.331.615.663.925.987l.093.098c.103.109.203.214.307.32z"
            fill="#000" fill-opacity=".5" />
        <path
            d="M98.443 270.24a2.15 2.15 0 00-.215-.011c-1.39-.094-2.844-.373-4.164-.927a9.326 9.326 0 01-.177-.719c1.294.132 2.587.256 3.88.377.097.248.208.501.335.749.107.181.222.358.341.531zM98.359 255.722c-.035.034-.07.064-.1.094.03-.03.065-.064.1-.094zM98.148 258.005c0 .753-.5 1.412-1.186 1.669l-.093-.098c-.31-.324-.617-.656-.924-.987.088-.14.18-.275.276-.411.096-.139.196-.279.3-.414.03-.049.064-.091.099-.136.008-.011.015-.023.027-.034a13.4 13.4 0 01.403-.505c.02-.022.035-.041.054-.06.05-.06.103-.121.157-.181.035-.041.07-.083.108-.124.03-.038.065-.072.095-.106.415.328.684.829.684 1.387zM97.472 256.611zM97.641 272.542c-.46-.041-.921-.087-1.382-.132.46.049.921.091 1.382.132z"
            fill="#000" fill-opacity=".5" />
        <path
            d="M97.368 256.724c-.038.041-.072.083-.107.124h-.004c.039-.041.073-.083.111-.124zM97.261 256.848c-.054.06-.108.121-.157.181.05-.064.1-.121.153-.181h.004zM97.05 257.089a13.4 13.4 0 00-.403.505c.004-.008.011-.015.015-.026a.281.281 0 00.042-.053c.096-.121.192-.245.292-.362.02-.022.039-.045.054-.064z"
            fill="#000" fill-opacity=".5" />
        <path
            d="M96.662 257.568l-.015.026c-.012.011-.02.023-.027.034.011-.019.027-.038.042-.06zM96.52 257.764c.03-.049.066-.091.1-.136-.035.045-.07.09-.1.136zM95.415 272.331a6.205 6.205 0 01-.257-.026c-.453-.042-.902-.087-1.355-.132-.906-.094-1.816-.188-2.721-.286-.2-.125-.392-.257-.58-.392a9.975 9.975 0 01-1.332-1.149 4.814 4.814 0 01-.265-.283 10.35 10.35 0 01-1.524-2.192c1.693.2 3.386.388 5.082.561h.004a8.525 8.525 0 001.597.87 11.097 11.097 0 001.35 3.029zM95.246 252.218c-.05.015-.096.034-.142.053-.115.041-.23.09-.342.143-.51.226-.986.524-1.427.878a3.52 3.52 0 00-.32.267 4.499 4.499 0 00-.302.287 5.13 5.13 0 00-.365.384l-.103.117a121.387 121.387 0 01-2.28-2.852 11.049 11.049 0 011.792-1.526c.43-.132.856-.278 1.278-.429h.004c.722.904 1.459 1.797 2.207 2.678z"
            fill="#000" fill-opacity=".5" />
        <path
            d="M95.158 272.305c-.453-.042-.902-.087-1.355-.132.453.045.906.09 1.355.132zM94.762 252.414a3.649 3.649 0 000 0zM93.887 268.583c.05.241.108.482.177.719a8.744 8.744 0 01-1.597-.866c.472.053.948.102 1.42.147zM93.803 272.173c-.906-.094-1.816-.188-2.721-.286.905.098 1.811.192 2.72.286zM93.016 253.559zM93.254 77.663c-.223.268-.445.535-.664.806-.062.076-.127.155-.188.234-.326.403-.649.814-.967 1.228-.261.34-.522.678-.776 1.021a46.528 46.528 0 01-2.195-3.684 93.207 93.207 0 012.694-3.323 41.777 41.777 0 002.096 3.718zM92.866 249.321c.058.076.115.147.173.219h-.004l-.173-.219h.004zM92.713 253.846z"
            fill="#000" fill-opacity=".5" />
        <path
            d="M92.862 249.321l.173.219c-.422.151-.848.297-1.278.429a10.08 10.08 0 011.105-.648zM91.884 248.067c.322.422.652.84.982 1.254h-.004c-.33-.414-.656-.832-.978-1.254zM92.463 254.102zM92.245 254.347l.103-.117c-3.086 3.485-3.75 9.957-.944 13.306.322.335.68.632 1.06.896-1.697-.173-3.39-.361-5.083-.561h-.003c-2.676-5.108-1.344-12.285 2.587-16.376.756.976 1.516 1.925 2.28 2.852z"
            fill="#000" fill-opacity=".5" />
        <path
            d="M91.884 248.067c.322.422.648.84.978 1.254a10.08 10.08 0 00-1.105.648c-.798.264-1.608.498-2.422.705a134.177 134.177 0 01-2.295-3.108 36.343 36.343 0 003.711-.991c.373.501.749.998 1.133 1.492zM90.66 80.952c.253-.343.514-.682.775-1.021a77.167 77.167 0 00-2.96 4.106c-8.947 12.873-15.08 28.845-13.69 44.596-1.002-3.895-.78-8.017-.385-12.002.235-2.065-1.485-2.969-2.71-2.415.542-3.172 1.306-6.318 2.208-9.41 3.066-9.965 8.14-19.262 14.566-27.538a46.528 46.528 0 002.195 3.684z"
            fill="#000" fill-opacity=".5" />
        <path
            d="M91.757 249.969c-.649.441-1.247.953-1.793 1.526-.21-.271-.418-.546-.629-.821a35.955 35.955 0 002.422-.705zM89.404 270.579zM88.905 270.063a8.634 8.634 0 01-.2-.226c.062.076.131.151.2.226z"
            fill="#000" fill-opacity=".5" />
        <path
            d="M87.04 247.566c.76 1.062 1.527 2.098 2.295 3.108-5.393 1.39-11.05 1.699-16.504.636-33.42-8.807-48.638-77.411-36.748-105.717 2.538-7.388 9.63-13.683 14.732-4.227 4.31 9.7 6.298 20.286 8.048 30.736l-.169.358a242.327 242.327 0 00-2.525 5.847c-.357-2.811-.81-5.613-1.305-8.401-1.566-5.884-4.475-28.145-10.329-29.712.054-.015.112-.026.17-.037a.497.497 0 01-.143.007c-.034.004-.069.008-.107.008l.08.022c-2.71.656-3.707 4.152-4.897 6.348-5.263 12.571-4.326 26.589-2.603 39.792 2.526 18.964 9.212 37.988 22.258 52.496 6.64 8.525 17.595 10.872 27.747 8.736zM87.381 267.871c.05.098.1.196.158.294a5.551 5.551 0 01-.161-.294h.003z"
            fill="#000" fill-opacity=".5" />
        <path
            d="M90.751 246.575c-1.22.396-2.46.727-3.711.991a154.202 154.202 0 01-3.324-4.833c-4.736-6.759-8.337-14.078-10.924-21.726a18.656 18.656 0 002.534-2.524c.119-.086.241-.169.357-.26.118.366.234.735.356 1.1 3.451 9.69 8.487 18.9 14.712 27.252z"
            fill="#000" fill-opacity=".5" />
        <path
            d="M83.716 242.733a154.202 154.202 0 003.324 4.833c-10.152 2.136-21.107-.211-27.747-8.736-13.046-14.508-19.732-33.532-22.258-52.496-1.723-13.203-2.66-27.221 2.603-39.792 1.19-2.196 2.187-5.692 4.897-6.348 5.854 1.567 8.763 23.828 10.329 29.712.495 2.788.948 5.59 1.305 8.401-2.054 4.98-3.788 10.096-4.276 15.464-.065 6.509-1.647 16.933 5.965 19.838.648.188 1.193.03 1.589-.305 1.493 3.646 4.11 6.494 8.275 6.878 1.681.257 3.263.128 4.694-.305l.058.17c.103.32.21.64.318.96 2.587 7.648 6.188 14.967 10.924 21.726z"
            fill="#fff" />
        <path
            d="M82.054 138.409c.28.26.568.516.856.768a92.63 92.63 0 00-.591 1.021 19.887 19.887 0 00-.637-.957l.069-.166.303-.666z"
            fill="#000" fill-opacity=".5" />
        <path
            d="M82.319 140.198a97.27 97.27 0 00-.48.859c-.173.301-.338.603-.507.904-.026-.007-.05-.011-.076-.019.03-.38-.081-.723-.284-1.006a119.5 119.5 0 01.71-1.695c.222.313.433.633.637.957zM82.158 138.186c-.035.076-.07.147-.104.223a42.218 42.218 0 01-1.723-1.673c.376.332.786.622 1.193.919.07.057.138.117.204.177.142.125.284.241.43.354z"
            fill="#000" fill-opacity=".5" />
        <path
            d="M82.054 138.409c-.1.222-.204.444-.303.666l-.07.166c-.79-1.119-1.684-2.17-2.575-3.224.054-.132.112-.26.17-.392.114.128.233.256.356.384.058.072.115.143.177.211.165.185.337.358.522.516.556.573 1.132 1.13 1.723 1.673zM81.256 141.942c.026.008.05.012.076.019-.034.06-.065.121-.1.177.012-.068.024-.132.024-.196zM80.972 140.936c.203.283.314.626.284 1.006a8.42 8.42 0 01-.618-.181c.107-.275.222-.55.334-.825z"
            fill="#000" fill-opacity=".5" />
        <path
            d="M81.256 141.942c0 .064-.012.128-.023.196a53.73 53.73 0 01-.446.806c-.157-.132-.31-.263-.464-.399.104-.264.207-.524.315-.784.203.068.41.129.618.181z"
            fill="#000" fill-opacity=".5" />
        <path
            d="M80.787 142.944c.15-.267.3-.535.446-.806-.054.275-.18.565-.4.863.012-.011.02-.023.031-.03l.127-.181c-.622.983-1.255 1.966-1.892 2.95.395-1.07.802-2.136 1.224-3.195.153.136.307.267.464.399zM81.682 139.241a119.5 119.5 0 00-.71 1.695c-.58-.821-1.92-1.141-2.798-.384-.23-.23-.453-.456-.676-.689a128.17 128.17 0 011.608-3.846c.89 1.054 1.785 2.105 2.576 3.224z"
            fill="#000" fill-opacity=".5" />
        <path
            d="M80.972 140.936c-.112.275-.227.55-.334.825a4.615 4.615 0 01-.35-.113 9.875 9.875 0 01-1.995-.975 1.159 1.159 0 01-.12-.121c.88-.757 2.219-.437 2.799.384z"
            fill="#000" fill-opacity=".5" />
        <path
            d="M80.288 141.648c.115.042.23.08.35.113-.108.26-.212.52-.315.784a39.53 39.53 0 01-2.03-1.872 9.875 9.875 0 001.995.975zM79.632 136.009c.227.245.46.49.699.727a5.486 5.486 0 01-.699-.727zM79.962 204.044c1.816 5.168-.157 11.105-4.28 14.179a161.642 161.642 0 01-.438-1.42c-.103-.358-.21-.716-.31-1.073-.084-.298-.169-.592-.25-.889-.03-.106-.06-.211-.088-.317 1.7-1.846 2.664-4.811 2.05-8.766-1.32-2.468 2.25-4.423 3.316-1.714z"
            fill="#000" fill-opacity=".5" />
        <path
            d="M80.323 142.545c-.422 1.059-.83 2.125-1.224 3.195-1.682 2.599-3.409 5.198-5.132 7.816-.085-.523-.43-.972-.89-1.247a174.71 174.71 0 012.836-8.329c.564-.862 1.12-1.725 1.677-2.592.142-.346.33-.614.553-.813.05.034.1.064.15.098a39.53 39.53 0 002.03 1.872zM79.632 136.009a16.243 16.243 0 01-.357-.384l.023-.053c.108.151.219.298.334.437zM79.275 135.625c-.058.132-.115.26-.169.392-1.247-1.477-2.48-2.961-3.393-4.664a17.16 17.16 0 01-.721-1.974c1.539 1.978 2.48 4.392 4.26 6.223l.023.023z"
            fill="#000" fill-opacity=".5" />
        <path
            d="M75.713 131.353c.914 1.703 2.146 3.187 3.393 4.664a128.17 128.17 0 00-1.608 3.846 30.988 30.988 0 01-2.714-3.27v-.06c-.007-.257-.069-.49-.126-.739a5.991 5.991 0 00-.357-1.021c-.184-.418-.4-.825-.6-1.239a16.007 16.007 0 01-.467-1.093 36.256 36.256 0 01-.388-1.269 55.751 55.751 0 01-.35-1.375c-.245-1.1-.471-2.208-.698-3.311a105.885 105.885 0 01-.622-3.263 2.197 2.197 0 00-.387-.938c.123-2.705.433-5.398.902-8.069 1.224-.554 2.944.35 2.71 2.415-.396 3.985-.618 8.107.383 12.002.016.181.031.362.05.542.054.068.108.136.158.204.2.667.437 1.326.721 1.974zM78.293 140.673c-.05-.034-.1-.064-.15-.098l.03-.023c.035.042.077.083.12.121z"
            fill="#000" fill-opacity=".5" />
        <path
            d="M77.498 139.863c.223.233.445.459.675.689l-.03.023a10.75 10.75 0 01-.722-.516c.023-.064.05-.132.077-.196z"
            fill="#000" fill-opacity=".5" />
        <path
            d="M78.143 140.575c-.223.199-.41.467-.553.813-.556.867-1.113 1.73-1.677 2.592.483-1.314.986-2.622 1.508-3.921.234.181.472.354.722.516zM77.498 139.863a4.069 4.069 0 00-.077.196c-2.126-1.658-3.704-4.05-5.001-6.344-1.301-2.728-1.904-5.632-2.119-8.586.066-.267.104-.531.127-.802a1.823 1.823 0 00-.004-.354c.073-1.616.223-3.229.276-4.848a84.808 84.808 0 00.783-4.8 1.38 1.38 0 01.208-.109 63.384 63.384 0 00-.902 8.069c.195.275.334.592.387.938.185 1.089.403 2.178.622 3.263.227 1.103.453 2.211.699 3.311.111.46.226.919.349 1.375.119.426.253.848.388 1.269.145.37.295.735.468 1.093.2.414.415.821.599 1.239.142.328.276.671.357 1.021.057.249.119.482.126.739v.06a30.988 30.988 0 002.714 3.27zM75.64 218.088c.016.045.031.09.043.135-.116.091-.239.174-.358.257.104-.128.212-.26.315-.392zM75.64 218.084c-.103.136-.21.268-.314.396a10.418 10.418 0 01-2.906 1.397 10.368 10.368 0 01-.15-.467c-.069-.207-.134-.414-.195-.625-.073-.223-.139-.449-.208-.675-.1-.324-.192-.648-.288-.971.346-.351.676-.712.983-1.085h.004s.004 0 .004-.004l.046-.023c.103-.053.207-.105.307-.166.065-.033.126-.071.188-.109h.004c.027-.019.057-.037.088-.06.027-.015.054-.034.08-.053.047-.03.096-.06.143-.094a2.65 2.65 0 00.172-.124c.096-.072.192-.143.284-.223.031-.022.058-.045.085-.067 0-.004.008-.004.008-.008.026-.023.05-.041.072-.064l.035-.03c.035-.03.069-.06.104-.094.023-.019.046-.042.065-.061.042-.037.08-.075.115-.113.08-.079.157-.158.23-.237.027.106.058.211.088.317.081.297.162.595.25.889.1.357.203.715.31 1.073.131.43.262.855.396 1.281zM75.913 143.98a174.71 174.71 0 00-2.837 8.329c-.119.373-.234.75-.349 1.123-.35 1.119-.683 2.242-1.006 3.368-.038.124-.073.245-.107.369.138-.211.272-.422.41-.633-4.594 7.098-8.989 14.357-12.155 22.053a43.645 43.645 0 00-.261-1.993c-.246-1.491-.491-2.991-.745-4.494 4.698-9.907 11.054-18.937 17.05-28.122z"
            fill="#000" fill-opacity=".5" />
        <path
            d="M75.245 216.803c-.104-.358-.211-.716-.311-1.073.1.357.203.715.31 1.073zM74.992 129.379a7.167 7.167 0 00-.158-.204c-.019-.18-.034-.361-.05-.542.062.249.13.497.208.746zM74.934 215.73c-.084-.298-.169-.592-.25-.889.081.297.162.595.25.889zM74.366 214.761c-.035.038-.077.076-.115.113.042-.037.08-.075.115-.113zM73.975 215.123c.026-.023.05-.041.072-.064a.57.57 0 01-.072.064zM73.91 154.302zM73.97 153.575c.035.23.02.479-.06.727a1.629 1.629 0 01-.162.362c-.023.045-.054.09-.084.136a2.296 2.296 0 01-.116.158 3.089 3.089 0 01-.433.437c-.338.331-.672.667-1.002 1.006.614-.95 1.232-1.895 1.854-2.841v.015h.004zM73.975 215.123l-.008.008c-.027.022-.054.045-.085.067.031-.022.062-.049.093-.075zM73.967 153.556c-.622.95-1.24 1.895-1.854 2.845h-.004l-.388.399c.327-1.126.66-2.245 1.006-3.368.115-.373.23-.75.35-1.123.46.275.805.724.89 1.247zM73.203 215.692c-.03.023-.061.041-.088.06.015-.015.03-.022.046-.034a.153.153 0 00.042-.026zM75.326 218.483a18.656 18.656 0 01-2.534 2.524c-.107-.32-.215-.64-.318-.96-.02-.057-.039-.113-.054-.17a10.494 10.494 0 002.906-1.394z"
            fill="#000" fill-opacity=".5" />
        <path
            d="M73.16 215.718s-.03.019-.045.034h-.004a.41.41 0 00.05-.034zM72.585 216.027s-.011.012-.015.023c0 .004-.004.004-.004.004a.118.118 0 01.019-.027zM72.516 216.072l.046-.018c-.307.373-.637.734-.983 1.085l-.184-.641c.1-.026.2-.056.3-.09a5.697 5.697 0 00.82-.336zM72.42 219.877c.015.057.034.113.054.17l-.058-.17h.004zM72.27 219.41c.046.155.096.313.15.467-.05-.154-.1-.312-.146-.467h-.004z"
            fill="#000" fill-opacity=".5" />
        <path
            d="M72.27 219.41c.046.155.096.313.146.467-1.431.433-3.013.562-4.694.305-4.164-.384-6.782-3.232-8.275-6.878.97-.825 1.01-2.724-.622-3.146a6.763 6.763 0 01-.43-.283c-1.919-8.818 1.036-19.148 4.165-12.951-4.119 15.276 3.239 21.13 8.835 19.574l.184.641c.093.323.189.647.288.971.066.226.135.449.207.675.062.211.127.418.196.625zm-10.11-21.379c-.05.061-.103.117-.16.174a2.308 2.308 0 01-.181.147c.008-.004.015-.004.023-.008h.008c.05-.045.1-.086.15-.135a1.44 1.44 0 00.16-.174v-.004zM72.11 156.404c-.028.046-.058.087-.085.132-.139.211-.273.422-.411.633.034-.124.069-.245.107-.369.127-.132.258-.264.388-.396z"
            fill="#000" fill-opacity=".5" />
        <path
            d="M72.075 218.785c-.073-.223-.139-.449-.208-.675.066.226.135.449.207.675zM71.721 156.8c.327-1.126.66-2.245 1.006-3.368-.35 1.119-.683 2.242-1.006 3.368zM72.278 216.185zM71.867 218.11c-.1-.324-.192-.648-.288-.971.093.323.189.647.288.971zM59.869 178.589s-.008.023-.015.034l-.3.746a72.321 72.321 0 00-1.581 4.359c-.07.203-.134.406-.196.61-.269.84-.518 1.688-.748 2.539-.38-1.82-.177-3.899-.534-5.662-.096-.972-.207-1.94-.326-2.908.81-1.967 1.67-3.914 2.526-5.847.057-.121.11-.237.168-.358.254 1.503.5 3.003.745 4.494.104.663.188 1.326.261 1.993zM58.825 210.158c1.631.422 1.593 2.321.622 3.146a20.246 20.246 0 01-1.052-3.429c.138.098.28.193.43.283z"
            fill="#000" fill-opacity=".5" />
        <path
            d="M59.447 213.304c-.396.335-.94.493-1.59.305-7.61-2.905-6.03-13.329-5.964-19.838.488-5.368 2.222-10.484 4.276-15.464.119.968.23 1.936.326 2.908.357 1.763.154 3.842.534 5.662a57.327 57.327 0 00-1.555 7.764c.165 4.626-1.332 12.175 2.921 15.234a20.246 20.246 0 001.052 3.429zM57.973 183.728zM57.777 184.338z"
            fill="#000" fill-opacity=".5" />
    </g>
    <path
        d="M232.973 96.04c.334 2.352.298 4.751-.036 7.103a22.568 22.568 0 01-1.955 6.531 20.15 20.15 0 01-1.753 3.019 18.027 18.027 0 01-1.693 2.095l-.131.129c-.048.047-.096.105-.143.152-.191.187-.37.386-.573.562-.441.421-.93.808-1.419 1.182a15.186 15.186 0 01-3.04 1.802 14.776 14.776 0 01-6.022 1.276c-.465-.047-.942-.07-1.419-.117-2.492-.246-4.853-1.135-6.952-2.458-2.122-1.346-3.899-3.113-5.366-5.114-.966-1.323-1.753-2.774-2.397-4.26a25.721 25.721 0 01-1.919-7.268 23.175 23.175 0 01-.144-3.406c0-.105 0-.21.012-.316.012-.257.024-.515.048-.772.036-.445.072-.878.119-1.323.179-1.51.501-2.996.966-4.435.06-.164.108-.34.167-.503.024-.059.048-.13.072-.188.047-.199.131-.397.238-.573a20.65 20.65 0 012.54-4.705c.346-.468.692-.936 1.073-1.37.429-.479.883-.935 1.348-1.368a16.354 16.354 0 012.873-2.13c.513-.293 1.038-.586 1.586-.82a15.501 15.501 0 011.741-.632 14.26 14.26 0 013.363-.585c2.552-.14 5.127.41 7.417 1.51 2.194 1.053 4.149 2.575 5.747 4.377a22.434 22.434 0 013.732 5.816 25.906 25.906 0 011.253 3.488c.298 1.089.512 2.189.667 3.3zm-3.005 5.383a25 25 0 00.096-2.68c-.036-.89-.108-1.79-.239-2.668a22.636 22.636 0 00-.596-2.692c-.25-.831-.537-1.639-.882-2.446-.334-.76-.716-1.51-1.145-2.224a18.366 18.366 0 00-1.347-1.943 20.35 20.35 0 00-1.527-1.685 17.192 17.192 0 00-1.669-1.404 15.84 15.84 0 00-1.801-1.112 16.971 16.971 0 00-1.896-.808 14.037 14.037 0 00-1.955-.491 14.654 14.654 0 00-2.027-.164c-.668.012-1.324.07-1.98.175a13.45 13.45 0 00-1.908.504c-.632.234-1.252.515-1.86.83-.62.352-1.204.738-1.765 1.16-.548.432-1.049.9-1.538 1.392a18.682 18.682 0 00-1.383 1.662c-.441.644-.859 1.299-1.228 1.978a20.44 20.44 0 00-.883 1.943c-.012.035-.012.058-.023.093a1.833 1.833 0 01-.084.234v.012a19.481 19.481 0 00-.668 2.294c-.19.854-.322 1.72-.417 2.586a26.55 26.55 0 00-.084 1.358v.094c-.011.374-.011.76 0 1.135.036.924.12 1.849.251 2.762.143.877.346 1.755.584 2.61.251.842.549 1.661.894 2.469.334.749.704 1.475 1.121 2.177.418.69.871 1.346 1.372 1.989.477.586.989 1.159 1.526 1.686a20.28 20.28 0 001.634 1.381c.584.409 1.192.784 1.824 1.123.596.305 1.216.562 1.848.784.644.211 1.3.375 1.968.504.656.128 1.323.175 1.991.187.68-.012 1.359-.07 2.027-.176a13.937 13.937 0 001.956-.515 14.122 14.122 0 001.872-.842 14.578 14.578 0 001.669-1.1c.537-.422 1.05-.878 1.527-1.37.035-.046.083-.093.131-.14.465-.503.906-1.042 1.311-1.592.442-.62.835-1.275 1.205-1.943.357-.702.679-1.416.954-2.153.286-.784.524-1.568.715-2.376.191-.854.334-1.72.429-2.598z"
        fill="#000" fill-opacity=".5" />
    <path
        d="M230.064 98.743a25 25 0 01-.096 2.68 23.452 23.452 0 01-.429 2.598 20.786 20.786 0 01-.716 2.376 20.534 20.534 0 01-.953 2.153c-.37.668-.764 1.323-1.205 1.943-.405.55-.846 1.089-1.311 1.592-.048.047-.096.094-.132.14-.477.492-.989.948-1.526 1.37-.525.398-1.085.772-1.669 1.1-.608.327-1.228.608-1.872.842-.644.223-1.288.387-1.956.515-.668.106-1.347.164-2.027.176a11.444 11.444 0 01-1.991-.187 16.126 16.126 0 01-1.968-.504 14.865 14.865 0 01-1.848-.784 18.183 18.183 0 01-1.825-1.123 20.266 20.266 0 01-1.633-1.381c-.537-.527-1.05-1.1-1.526-1.686a20.502 20.502 0 01-1.372-1.989 20.988 20.988 0 01-1.121-2.177 22.798 22.798 0 01-.894-2.469 24.47 24.47 0 01-.584-2.61 26.826 26.826 0 01-.251-2.762c-.012-.375-.012-.761 0-1.135v-.094c.012-.445.048-.901.084-1.358.095-.866.226-1.732.417-2.586.179-.773.394-1.545.668-2.294v-.012c.036-.082.06-.152.083-.234.012-.035.012-.058.024-.093.263-.656.549-1.311.883-1.943.369-.679.787-1.334 1.228-1.978.429-.585.894-1.135 1.383-1.662.489-.492.99-.96 1.538-1.393a16.334 16.334 0 011.765-1.158 16.356 16.356 0 011.86-.831A13.45 13.45 0 01213 81.28a13.984 13.984 0 011.979-.175c.68.012 1.36.059 2.028.164.667.117 1.311.28 1.955.491.656.234 1.288.504 1.896.808.62.328 1.228.702 1.801 1.112.584.433 1.144.9 1.669 1.404.549.539 1.049 1.1 1.526 1.685.489.62.942 1.264 1.348 1.943.429.714.811 1.463 1.145 2.224.345.807.632 1.615.882 2.446.25.878.453 1.779.596 2.692.131.877.203 1.778.239 2.668zm-11.424 3.628c.048-1.674.06-3.347.012-5.02-.334-1.663.68-4.776-1.478-5.338-1.706-.257-1.944 1.71-1.777 2.938.071 1.826.131 3.663.095 5.501.155 1.673-.918 4.74 1.527 5.102 1.693-.023 1.585-1.978 1.621-3.183z"
        fill="#fff" />
    <path
        d="M215.396 94.951c-.167-1.229.072-3.195 1.777-2.938 2.158.562 1.145 3.675 1.479 5.337a89.407 89.407 0 01-.012 5.021c-.036 1.206.071 3.16-1.622 3.183-2.444-.362-1.371-3.429-1.526-5.102.036-1.838-.024-3.675-.096-5.5zm.203-.316c.06.129.131.258.227.351a2.56 2.56 0 01-.227-.35zM201.303 127.042c.262.562.274 1.24.155 1.849-.43 2.879-3.709 4.892-6.559 4.365-2.599-.515-4.471-2.926-5.556-5.594a9.71 9.71 0 01-.275.457c-2.396 4.154-7.369 7.08-12.281 6.062-3.912-.644-7.489-2.996-9.17-6.577-.68-1.58-.823-3.441-.322-5.091.477-1.194.465-1.791 1.061-.234 1.515 2.797 2.922 6.12 6.081 7.443 5.14 2.575 10.577 0 12.795-4.986.501-.784.716-2.188 1.085-3.312 0-.07.012-.129.024-.187-.358.023-.751 0-1.145-.059-1.311-.327-2.361-1.065-3.195-2.024-.835-.96-1.443-2.154-1.849-3.418 0-.011-.011-.023-.011-.035a4.755 4.755 0 01-.12-.386c-.012-.023-.012-.058-.024-.094-.035-.093-.059-.199-.083-.304l-.036-.152c-.024-.082-.036-.176-.059-.258l-.036-.163c-.012-.106-.036-.199-.048-.293-.012-.035-.012-.082-.024-.117-.024-.14-.047-.269-.059-.398 0-.047-.012-.094-.012-.14-.012-.082-.024-.176-.036-.27 0-.046-.012-.105-.012-.152-.012-.093-.012-.175-.024-.269 0-.047-.012-.093-.012-.14-.012-.141-.024-.269-.024-.398h.036l1.431-.106c.06 0 .131-.011.203-.011.453-.024.894-.059 1.347-.082.06 0 .108-.012.167-.012a112.76 112.76 0 016.296-.199c.394 0 .775 0 1.169.012.143.012.274.012.405.012.107.011.215.011.322.011.191 0 .37.012.561.012.095.012.178.012.274.012.226 0 .441.011.668.023.059.012.119.012.178.012.275.012.561.035.847.047-.227.866-.465 1.65-.608 2.247-.096.327-.191.655-.31.994-.656 1.885-1.741 3.839-3.303 5.021.203.269.274.562.286.866.107.41.083.866-.095 1.253a3.519 3.519 0 000 .503c.226 2.539 1.18 5.407 3.565 6.718 2.492 1.111 3.601-2.212 5.807-2.505.167 0 .429-.117.525.047zm-14.19-9.679c1.824.656 3.005-.398 3.828-1.954-1.789 0-3.59.046-5.378.128a5.305 5.305 0 001.55 1.826z"
        fill="#000" fill-opacity=".5" />
    <path
        d="M190.94 115.409c-.822 1.556-2.003 2.609-3.827 1.954a5.319 5.319 0 01-1.551-1.826c1.789-.082 3.59-.128 5.378-.128z"
        fill="#fff" />
    <path
        d="M171.289 92.645c.143 2.54-.071 5.08-.572 7.573a31.445 31.445 0 01-.978 3.581 27.174 27.174 0 01-1.407 3.394 30.997 30.997 0 01-1.908 3.347 27.276 27.276 0 01-2.301 3.031 30.501 30.501 0 01-5.819 5.197 31.183 31.183 0 01-6.928 3.557c-.716.258-1.443.492-2.099.667-.048.012-.083.024-.131.036-.024.011-.06.011-.107.035a30.069 30.069 0 01-7.632 1.1h-.536a29.854 29.854 0 01-7.215-.808c-2.444-.585-4.829-1.428-7.059-2.575-.179-.093-.369-.187-.548-.28-.06-.024-.12-.059-.179-.082a24.532 24.532 0 01-1.204-.703 30.561 30.561 0 01-7.215-5.992c-.012-.011-.012-.023-.023-.035l-.048-.058a1.41 1.41 0 01-.179-.223c-.048-.046-.084-.105-.131-.152a29.032 29.032 0 01-2.349-3.16 30.312 30.312 0 01-3.327-6.87 29.556 29.556 0 01-1.479-7.174c-.191-2.399-.095-4.833.298-7.22a29.65 29.65 0 011.932-6.66 31.741 31.741 0 011.634-3.312c.572-1.018 1.24-1.99 1.943-2.926a29.428 29.428 0 015.152-5.348c1.931-1.557 4.042-2.903 6.308-3.944 2.289-1.054 4.686-1.861 7.166-2.341a31.813 31.813 0 017.667-.538c2.433.128 4.865.55 7.202 1.24a31.246 31.246 0 016.869 2.973 31.59 31.59 0 016.069 4.61 30.316 30.316 0 014.639 5.782 30.896 30.896 0 013.148 6.823 29.35 29.35 0 011.347 7.456zm-3.351 1.346c0-1.228-.071-2.446-.214-3.663a29.167 29.167 0 00-.656-3.347 29.06 29.06 0 00-1.097-3.253 30.48 30.48 0 00-1.431-2.95 31.059 31.059 0 00-1.836-2.82 29.375 29.375 0 00-2.159-2.54 32.973 32.973 0 00-2.516-2.305 27.51 27.51 0 00-2.623-1.85 29.998 29.998 0 00-3.029-1.626 28.552 28.552 0 00-3.326-1.264 29.596 29.596 0 00-3.59-.855 31.513 31.513 0 00-3.792-.374 29.72 29.72 0 00-4.078.175 30.758 30.758 0 00-4.257.831c-1.454.41-2.861.925-4.233 1.545a30.631 30.631 0 00-4.102 2.317 29.8 29.8 0 00-3.66 2.996 29.261 29.261 0 00-3.065 3.558 28.603 28.603 0 00-2.313 3.827 30.12 30.12 0 00-1.562 3.862 28.588 28.588 0 00-.93 3.98 29.02 29.02 0 00-.31 3.791c0 1.183.071 2.365.214 3.535a30.38 30.38 0 00.668 3.417 30.384 30.384 0 001.073 3.184 31.857 31.857 0 001.491 3.078c.524.913 1.109 1.79 1.705 2.598l.083.105c.382.503.775.995 1.193 1.486.071.082.143.153.155.164.131.176.286.328.441.492l.394.421c.751.773 1.55 1.51 2.384 2.189a30.027 30.027 0 002.862 2.024c.418.246.835.492 1.252.714.048.024.096.047.131.082.525.281 1.05.539 1.586.784 1.073.48 2.182.902 3.303 1.264 1.181.351 2.373.632 3.589.855 1.229.199 2.457.316 3.709.374a34.533 34.533 0 004.114-.175c1.383-.176 2.766-.422 4.102-.784l.167-.047a30.903 30.903 0 004.161-1.51 29.558 29.558 0 004.042-2.27 31.566 31.566 0 003.721-3.02 30.844 30.844 0 003.112-3.593 29.142 29.142 0 002.301-3.792 30.346 30.346 0 001.61-3.991c.394-1.287.692-2.586.906-3.92.179-1.23.275-2.458.31-3.699z"
        fill="#000" fill-opacity=".5" />
    <path
        d="M167.723 90.328c.143 1.217.215 2.435.215 3.663a32.026 32.026 0 01-.31 3.699 29.354 29.354 0 01-.906 3.92 30.346 30.346 0 01-1.61 3.991 29.365 29.365 0 01-2.301 3.792 30.852 30.852 0 01-3.113 3.593 31.474 31.474 0 01-3.72 3.02 29.617 29.617 0 01-4.042 2.27 30.965 30.965 0 01-4.162 1.51l-.167.047c-1.335.362-2.718.608-4.102.784-1.371.14-2.742.199-4.114.175a32.471 32.471 0 01-3.708-.374 34.176 34.176 0 01-3.589-.855 32.759 32.759 0 01-3.303-1.264 27.763 27.763 0 01-1.586-.784c-.036-.035-.084-.058-.131-.082a32.445 32.445 0 01-1.252-.714 29.9 29.9 0 01-2.862-2.024 27.737 27.737 0 01-2.385-2.189l-.393-.421c-.155-.164-.31-.316-.442-.492a2.976 2.976 0 01-.155-.164c-.417-.491-.81-.983-1.192-1.486l-.084-.105a27.537 27.537 0 01-1.705-2.598 32.084 32.084 0 01-1.49-3.078 30.154 30.154 0 01-1.073-3.184 30.158 30.158 0 01-.668-3.417 29.164 29.164 0 01-.215-3.535 29.02 29.02 0 01.31-3.791c.215-1.346.525-2.669.93-3.98.43-1.322.954-2.61 1.562-3.862a28.505 28.505 0 012.314-3.827 29.253 29.253 0 013.064-3.558 29.81 29.81 0 013.661-2.996 30.631 30.631 0 014.102-2.317 29.895 29.895 0 014.233-1.545 30.701 30.701 0 014.257-.83 29.714 29.714 0 014.078-.176c1.276.047 2.54.175 3.792.374 1.204.211 2.409.492 3.589.855 1.133.35 2.242.772 3.327 1.264 1.037.48 2.051 1.03 3.029 1.626a27.638 27.638 0 012.623 1.85 33.355 33.355 0 012.516 2.305c.763.808 1.491 1.65 2.158 2.54a31.07 31.07 0 011.837 2.82c.536.96 1.001 1.943 1.431 2.95a29.264 29.264 0 011.097 3.253c.286 1.1.5 2.224.655 3.347zm-21.26 5.173c.083-2.376.155-4.751.143-7.116-.072-1.837-2.624-2.223-3.065-.327-.155.702-.024 1.428-.083 2.13-.036 2.364-.108 4.74-.227 7.104-.048 1.322-.489 3.405 1.252 3.838 2.635 0 1.669-3.92 1.98-5.629z"
        fill="#fff" />
    <path
        d="M146.605 88.385c.012 2.365-.059 4.74-.143 7.116-.31 1.709.656 5.629-1.979 5.629-1.741-.433-1.3-2.516-1.252-3.838.119-2.364.191-4.74.226-7.104.06-.702-.071-1.428.084-2.13.441-1.896 2.993-1.51 3.064.327zM235.63 110.429c-2.909-3.334 3.276-4.623 5.492-5.66 4.085-1.591 8.524-2.237 12.904-2.012a98.688 98.688 0 01-5.227 2.803c-3.096 1.637-6.463 2.637-9.684 3.991-1.157.332-2.268 1.794-3.485.878zM251.03 118.227c-4.876-.85-9.952-.381-14.784-1.21-1.995-.989-.58-4.749 1.566-3.45 4.365.17 8.743.24 13.075.833 3.276.592 4.122 3.591.143 3.827zM70.67 115.614c-2.565-5.239 14.934-6.143 17.963-5.312 3.369.294 6.578 1.718 9.12 3.906-3.804.522-7.642.177-11.427-.358-3.434-.259-6.89.204-10.221 1.034-.989.289-1.986.57-2.896 1.058-.683.839-2.08.627-2.541-.328h.002zM72.69 128.826c-1.292-.666-1.249-2.857.032-3.458l.19-.082c.004 0 .01-.004.01-.004 5.592-2.07 11.562-3.591 17.482-4.293 2.53.572 1.535 4.07-.861 3.875-5.053.911-10.142 1.983-14.976 3.711-.572.334-1.244.623-1.877.251zM254.123 130.515a171.441 171.441 0 00-10.335-2.749c-1.385-.315-2.776-.619-4.19-.767-1.419.332-2.51-1.113-2.121-2.424.861-2.554 4.259-.841 6.18-.687 3.844.854 7.65 1.869 11.424 2.983 2.839.482 1.883 4.924-.956 3.644h-.002zM72.272 143.919c-1.866-.347-1.85-3.383-.012-3.775 3.51-1.792 6.87-3.858 10.343-5.719 1.237-.643 2.434-1.381 3.71-1.947 1.212-.492 2.7-.513 3.91-.008-.306.925-.847 1.754-1.505 2.475-2.197 2.011-5.186 2.979-7.694 4.572-1.963 1.079-3.912 2.181-5.885 3.244-.946.379-1.795 1.254-2.867 1.16v-.002z"
        fill="#000" fill-opacity=".5" />
    <defs>
        <clipPath id="prefix__clip0_974_4231">
            <path fill="#fff" transform="translate(31.977 31.218)" d="M0 0h229.653v244.172H0z" />
        </clipPath>
    </defs>
</svg>